<?xml version="1.0" encoding="utf-8"?>
<!-- Generator: Adobe Illustrator 19.0.1, SVG Export Plug-In . SVG Version: 6.00 Build 0)  -->
<svg version="1.1" id="Layer_1" xmlns="http://www.w3.org/2000/svg" xmlns:xlink="http://www.w3.org/1999/xlink" x="0px" y="0px"
	 viewBox="0 0 36.8 36.8" style="enable-background:new 0 0 36.8 36.8;" xml:space="preserve">
<style type="text/css">
	.st0{fill:#D57CA4;}
	.st1{fill-rule:evenodd;clip-rule:evenodd;fill:#FFFFFF;}
</style>
<path class="st0" d="M18,34.7c9.4,0,17-7.6,17-17c0-9.4-7.6-17-17-17c-9.4,0-17,7.6-17,17C1,27.1,8.6,34.7,18,34.7"/>
<path class="st1" d="M26.3,16c-0.1-0.5-0.3-1.1-0.5-1.6c-0.2-0.5-0.5-1-0.8-1.4c-0.3-0.5-0.7-0.9-1-1.3c-0.4-0.4-0.8-0.7-1.3-1
	c-0.5-0.3-0.9-0.6-1.4-0.8c-0.5-0.2-1.1-0.4-1.6-0.5c-0.6-0.1-1.1-0.2-1.7-0.2c-0.6,0-1.2,0.1-1.7,0.2c-0.5,0.1-1.1,0.3-1.6,0.5
	c-0.5,0.2-1,0.5-1.4,0.8c-0.5,0.3-0.9,0.7-1.3,1c-0.4,0.4-0.7,0.8-1,1.3c-0.3,0.5-0.6,0.9-0.8,1.4c-0.2,0.5-0.4,1.1-0.5,1.6
	c-0.1,0.6-0.2,1.1-0.2,1.7c0,0.6,0.1,1.2,0.2,1.7c0.1,0.5,0.3,1.1,0.5,1.6c0.2,0.5,0.5,1,0.8,1.4c0.3,0.5,0.7,0.9,1,1.3
	c0.4,0.4,0.8,0.7,1.3,1c0.5,0.3,0.9,0.6,1.4,0.8c0.5,0.2,1.1,0.4,1.6,0.5c0.6,0.1,1.1,0.2,1.7,0.2c0.6,0,1.2-0.1,1.7-0.2
	c0.5-0.1,1.1-0.3,1.6-0.5c0.5-0.2,1-0.5,1.4-0.8c0.5-0.3,0.9-0.7,1.3-1c0.4-0.4,0.7-0.8,1-1.3c0.3-0.5,0.6-0.9,0.8-1.4
	c0.2-0.5,0.4-1.1,0.5-1.6c0.1-0.6,0.2-1.1,0.2-1.7C26.5,17.2,26.4,16.6,26.3,16z M25.3,17.7c-0.1,0-2.6-0.6-5.1-0.2
	c-0.1-0.1-0.1-0.2-0.2-0.4c-0.2-0.4-0.3-0.7-0.5-1.1c2.9-1.2,4-2.9,4-2.9C24.6,14.4,25.2,15.9,25.3,17.7z M22.8,12.3
	c0,0-1.1,1.6-3.8,2.6c-1.2-2.3-2.6-4.1-2.7-4.2c0.5-0.1,1.1-0.2,1.7-0.2C19.8,10.5,21.5,11.1,22.8,12.3z M16.3,10.7
	C16.3,10.7,16.2,10.7,16.3,10.7C16.2,10.7,16.2,10.7,16.3,10.7C16.2,10.7,16.2,10.7,16.3,10.7z M14.9,11.2c0.1,0.1,1.4,2,2.7,4.2
	c-3.5,0.9-6.5,0.9-6.7,0.9C11.4,14,12.9,12.1,14.9,11.2z M10.7,17.7c0-0.1,0-0.2,0-0.2c0.1,0,3.7,0.1,7.5-1c0.2,0.4,0.4,0.8,0.6,1.2
	c-0.1,0-0.2,0.1-0.3,0.1c-3.9,1.3-5.9,4.8-5.9,4.8s0,0,0,0C11.4,21.3,10.7,19.6,10.7,17.7z M18,25c-1.8,0-3.4-0.6-4.6-1.7
	c0.1,0.1,0.2,0.1,0.2,0.1s1.4-3,5.7-4.5c0,0,0,0,0,0c1,2.7,1.4,4.9,1.6,5.5C20,24.8,19,25,18,25z M22,23.8c-0.1-0.4-0.5-2.6-1.4-5.2
	c2.3-0.4,4.4,0.3,4.5,0.3C24.8,20.9,23.7,22.6,22,23.8z"/>
</svg>
