<?xml version="1.0" encoding="utf-8"?>
<!-- Generator: Adobe Illustrator 19.0.1, SVG Export Plug-In . SVG Version: 6.00 Build 0)  -->
<svg version="1.1" id="Layer_1" xmlns="http://www.w3.org/2000/svg" xmlns:xlink="http://www.w3.org/1999/xlink" x="0px" y="0px"
	 viewBox="0 0 36.8 36.8" style="enable-background:new 0 0 36.8 36.8;" xml:space="preserve">
<style type="text/css">
	.st0{fill:#434648;}
	.st1{fill:#FFFFFF;}
</style>
<path class="st0" d="M18,35c9.4,0,17-7.6,17-17c0-9.4-7.6-17-17-17C8.6,1,1,8.6,1,18C1,27.4,8.6,35,18,35"/>
<path class="st1" d="M15.2,25.6c-2,0-3.5-1.3-3.5-2.8c0-1.5,1.8-2.8,3.8-2.7c0.5,0,0.9,0.1,1.3,0.2c1.1,0.8,1.9,1.2,2.1,2.1
	c0,0.2,0.1,0.4,0.1,0.5C19,24.4,18,25.6,15.2,25.6 M15.7,16.6c-1.4,0-2.6-1.5-2.9-3.3c-0.2-1.8,0.7-3.1,2-3.1c1.4,0,2.6,1.5,2.9,3.3
	C18,15.2,17.1,16.7,15.7,16.6 M18.5,19.2c-0.5-0.3-1.4-1.2-1.4-1.6c0-0.6,0.2-0.8,1-1.5c0.9-0.7,1.5-1.6,1.5-2.8
	c0-1.3-0.6-2.6-1.7-3h1.7l1.2-0.9h-5.3c-2.4,0-4.6,1.8-4.6,3.9c0,2.1,1.6,3.8,4,3.8c0.2,0,0.3,0,0.5,0c-0.2,0.3-0.3,0.6-0.3,1
	c0,0.6,0.3,1.1,0.7,1.5c-0.3,0-0.6,0-0.9,0c-2.9,0-5.2,1.9-5.2,3.8c0,1.9,2.5,3.1,5.4,3.1c3.3,0,5.2-1.9,5.2-3.8
	C20.4,21.1,19.9,20.2,18.5,19.2 M26.2,16.8h-2.1v-2.1h-1.7v2.1h-2.1v1.7h2.1v2.1h1.7v-2.1h2.1V16.8z"/>
</svg>
