<?xml version="1.0" encoding="utf-8"?>
<!-- Generator: Adobe Illustrator 19.0.1, SVG Export Plug-In . SVG Version: 6.00 Build 0)  -->
<svg version="1.1" id="Layer_1" xmlns="http://www.w3.org/2000/svg" xmlns:xlink="http://www.w3.org/1999/xlink" x="0px" y="0px"
	 viewBox="0 0 36.8 36.8" style="enable-background:new 0 0 36.8 36.8;" xml:space="preserve">
<style type="text/css">
	.st0{fill:#5F6364;}
	.st1{fill:#FFFFFF;}
</style>
<path class="st0" d="M18.5,35.4c9.4,0,17-7.6,17-17c0-9.4-7.6-17-17-17c-9.4,0-17,7.6-17,17C1.5,27.8,9.1,35.4,18.5,35.4"/>
<path class="st1" d="M23.7,9.9H13.3c-1.8,0-3.3,1.5-3.3,3.3v3.5v7c0,1.8,1.5,3.3,3.3,3.3h10.4c1.8,0,3.3-1.5,3.3-3.3v-7v-3.5
	C27,11.4,25.6,9.9,23.7,9.9z M24.7,11.8l0.4,0v0.4v2.5l-2.9,0l0-2.9L24.7,11.8z M16.1,16.6c0.5-0.8,1.4-1.2,2.4-1.2
	c1,0,1.9,0.5,2.4,1.2c0.4,0.5,0.6,1.1,0.6,1.7c0,1.7-1.3,3-3,3s-3-1.3-3-3C15.5,17.7,15.7,17.1,16.1,16.6z M25.4,23.6
	c0,0.9-0.7,1.6-1.6,1.6H13.3c-0.9,0-1.6-0.7-1.6-1.6v-7h2.5c-0.2,0.5-0.3,1.1-0.3,1.7c0,2.6,2.1,4.7,4.7,4.7c2.6,0,4.7-2.1,4.7-4.7
	c0-0.6-0.1-1.2-0.3-1.7h2.5V23.6z"/>
</svg>
