<?xml version="1.0" encoding="utf-8"?>
<!-- Generator: Adobe Illustrator 19.0.1, SVG Export Plug-In . SVG Version: 6.00 Build 0)  -->
<svg version="1.1" id="Layer_1" xmlns="http://www.w3.org/2000/svg" xmlns:xlink="http://www.w3.org/1999/xlink" x="0px" y="0px"
	 viewBox="0 0 36.8 36.8" style="enable-background:new 0 0 36.8 36.8;" xml:space="preserve">
<style type="text/css">
	.st0{fill:#F1605C;}
	.st1{fill:#FFFFFF;}
</style>
<path class="st0" d="M18,35.4c9.4,0,17-7.6,17-17c0-9.4-7.6-17-17-17C8.6,1.4,1,9,1,18.4C1,27.8,8.6,35.4,18,35.4"/>
<path class="st1" d="M18,9.8c-4.7,0-8.5,3.8-8.5,8.5c0,3.5,2.1,6.5,5.1,7.8c0-0.6,0-1.3,0.1-2c0.2-0.7,1.1-4.6,1.1-4.6
	s-0.3-0.5-0.3-1.3c0-1.3,0.7-2.2,1.6-2.2c0.8,0,1.1,0.6,1.1,1.3c0,0.8-0.5,1.9-0.8,3c-0.2,0.9,0.5,1.6,1.3,1.6
	c1.6,0,2.7-2.1,2.7-4.5c0-1.9-1.3-3.3-3.5-3.3c-2.6,0-4.2,1.9-4.2,4.1c0,0.7,0.2,1.3,0.6,1.7c0.2,0.2,0.2,0.3,0.1,0.5
	c0,0.2-0.1,0.5-0.2,0.7c-0.1,0.2-0.2,0.3-0.4,0.2c-1.2-0.5-1.7-1.8-1.7-3.2c0-2.4,2-5.3,6.1-5.3c3.2,0,5.4,2.4,5.4,4.9
	c0,3.3-1.9,5.8-4.6,5.8c-0.9,0-1.8-0.5-2.1-1.1c0,0-0.5,2-0.6,2.3c-0.2,0.7-0.5,1.3-0.9,1.8c0.8,0.2,1.6,0.3,2.4,0.3
	c4.7,0,8.5-3.8,8.5-8.5C26.5,13.6,22.7,9.8,18,9.8"/>
</svg>
