<?xml version="1.0" encoding="utf-8"?>
<!-- Generator: Adobe Illustrator 18.1.0, SVG Export Plug-In . SVG Version: 6.00 Build 0)  -->
<svg version="1.1" id="Layer_1" xmlns="http://www.w3.org/2000/svg" xmlns:xlink="http://www.w3.org/1999/xlink" x="0px" y="0px"
	 viewBox="-255 347 100 100" enable-background="new -255 347 100 100" xml:space="preserve">
<path fill="#FFFFFF" d="M-217.5,385.8c-2.9,0-5.2,2.3-5.2,5.2c0,2.9,2.3,5.2,5.2,5.2c2.9,0,5.2-2.3,5.2-5.2
	C-212.2,388.2-214.6,385.8-217.5,385.8z M-217.5,393.3c-1.2,0-2.2-1-2.2-2.2c0-1.2,1-2.2,2.2-2.2c1.2,0,2.2,1,2.2,2.2
	C-215.2,392.3-216.2,393.3-217.5,393.3z"/>
<path fill="#FFFFFF" d="M-193.4,385.8c-2.9,0-5.2,2.3-5.2,5.2c0,2.9,2.3,5.2,5.2,5.2c2.9,0,5.2-2.3,5.2-5.2
	C-188.2,388.2-190.5,385.8-193.4,385.8z M-193.4,393.3c-1.2,0-2.2-1-2.2-2.2c0-1.2,1-2.2,2.2-2.2c1.2,0,2.2,1,2.2,2.2
	C-191.2,392.3-192.2,393.3-193.4,393.3z"/>
<path fill="#FFFFFF" d="M-173.4,410.3c0-8.7,4.8-11.7,5-11.9c0.7-0.4,0.9-1.3,0.5-2.1c-0.4-0.7-1.3-0.9-2.1-0.5
	c-0.3,0.2-6.5,4-6.5,14.4c0,5.9,2,9.8,3.7,12.8c1.2,2.2,2.1,3.9,2.1,5.9c0,1.4-0.3,2.5-0.9,3c-0.6,0.5-1.4,0.5-1.4,0.5
	c-0.1,0-0.1,0-0.2,0h-5.5c0.6-1,1-2.2,1-3.5v-67.6c0-0.7-0.4-1.3-1.1-1.4c-0.6-0.2-1.3,0.1-1.7,0.7l-7.3,12.1
	c-2.2,0-8.9-0.1-28.6-0.1c-4.2,0-6.3,0-7.3,0l-6.7-13c-0.3-0.6-1-0.9-1.7-0.8c-0.7,0.2-1.1,0.8-1.1,1.5V429c0,3.6,2.9,6.5,6.5,6.5
	h22.9h19.8h10.9c0.1,0,0.2,0,0.4,0c0.7,0,2.1-0.2,3.2-1.2c1.3-1.1,2-2.9,2-5.3c0-2.7-1.2-5-2.4-7.3
	C-171.6,418.8-173.4,415.5-173.4,410.3z M-203.9,432.5h-22.9c-1.9,0-3.5-1.6-3.5-3.5v-62.5l4.3,8.4c0.3,0.5,0.9,0.8,1.4,0.8
	c0.3,0,2.6,0,8.1,0c11.5,0,28.1,0,29.3,0.1c0.6,0.1,1.1-0.2,1.4-0.7l5-8.3V429c0,1.9-1.6,3.5-3.5,3.5L-203.9,432.5L-203.9,432.5z"/>
<path fill="#FFFFFF" d="M-202.8,399.3h-5.2c-0.8,0-1.5,0.7-1.5,1.5c0,0.8,0.7,1.5,1.5,1.5h1.1l-0.1,1.9c0,0.8,0.6,1.5,1.4,1.6
	c0,0,0.1,0,0.1,0c0.8,0,1.4-0.6,1.5-1.4l0.1-2.1h1.1c0.8,0,1.5-0.7,1.5-1.5S-202,399.3-202.8,399.3z"/>
</svg>
