<?xml version="1.0" encoding="utf-8"?>
<!-- Generator: Adobe Illustrator 18.1.0, SVG Export Plug-In . SVG Version: 6.00 Build 0)  -->
<svg version="1.1" id="Capa_1" xmlns="http://www.w3.org/2000/svg" xmlns:xlink="http://www.w3.org/1999/xlink" x="0px" y="0px"
	 viewBox="-295 221 364 365" enable-background="new -295 221 364 365" xml:space="preserve">
<g>
	<defs>
		<circle id="SVGID_1_" cx="-112.5" cy="402.5" r="171.5"/>
	</defs>
	<use xlink:href="#SVGID_1_"  overflow="visible" fill="#D7516B"/>
	<clipPath id="SVGID_2_">
		<use xlink:href="#SVGID_1_"  overflow="visible"/>
	</clipPath>
</g>
<path fill="#FFFFFF" d="M-30.7,437.4c-5.4-6-18.3-21.2-28.9-23.6c-0.2-0.2-0.4-0.4-0.7-0.6c0,0,0,0,0,0c-0.9-0.4-1.7-0.7-2.6-1.1
	c21.4-27.5,5.9-72.2-16.8-93.6c-28.8-27.2-72.9-21.2-98.8,6.2c-24.4,25.9-29.1,73.1-5,100.8c19.2,22,67.9,36.5,90.7,11.2
	c16.4,17,67,76.6,81.1,40.9C-6.4,464.1-22.7,446.3-30.7,437.4z M-40.1,436.5c-1.1-0.7-2.1-1.4-3.1-2.1
	c-14.5-10.1-30.4-18.2-44.3-29.2c1.2-1.9,2.3-3.9,3.3-6c2.2,2,4.6,3.8,7,5.6c2.6,2,5.2,4.3,7.9,6.3c0,0.1-0.1,0.2-0.1,0.3
	c-0.7,0.5-0.7,1.7-0.1,2.4c0,0,0,0,0,0c0,0,0.1,0,0.1,0.1c0.1,0.1,0.1,0.2,0.2,0.2c0.2,1,0.9,1.8,1.9,2.2c0,0,0,0,0,0c0,0,0,0,0,0
	c0,0,0,0,0.1,0c0.1,0,0.2,0.1,0.3,0.1c0.2,0.1,0.4,0.3,0.6,0.5c0.3,1.2,1.3,2.2,2.7,2.4C-55.3,420.2-46.1,430.4-40.1,436.5z
	 M-96.1,405.5c-0.4,0.1-0.8,0.3-1.1,0.7c-0.6,1-1.3,2-2,3c-0.3,0.4-0.7,0.8-1,1.1c-0.3,0.3-0.5,0.7-0.7,1
	c-10.8,12.7-25.6,12.5-41.4,4c-20.7-11.1-30.6-34.5-20.2-56.1c9.9-20.5,31.3-27.2,50.9-19.8c2.1,1.2,4.1,2.4,6.2,3.5
	c3.1,1.8,6,3.8,8.9,5.8C-81.1,363.9-82.9,388.4-96.1,405.5z M-81.9,393.6c2.7,1.7,5.3,3.4,7.8,5.3c2.8,2,5.5,4.7,8.4,6.7
	c-0.7,1.1-1.5,2.1-2.3,3.1c-2-1.2-4-2.4-5.9-3.6c-3.4-2.3-6.6-4.7-9.9-7.1C-83,396.5-82.4,395.1-81.9,393.6z M-63.9,402.6
	c-2.2-2.1-5.1-3.8-7.5-5.4c-3.1-2.1-6.4-4.1-9.7-5.9c0.9-2.9,1.6-5.9,2-8.9c2.6,3.2,13.5,9.5,18.5,12.3
	C-61.5,397.4-62.6,400.1-63.9,402.6z M-59.7,390.5c-2.8-1.7-5.9-3.1-8.7-4.7c-2.3-1.3-4.6-2.5-6.9-3.8c-0.7-0.4-1.5-1-2.2-1.2
	c-0.4-0.1-0.6,0-0.8,0.1c0-0.1-0.1-0.2-0.2-0.3c-0.1-0.1-0.2-0.1-0.4-0.2c0,0,0,0,0,0c0.2-2.2,0.3-4.4,0.2-6.6
	c5.9,5.4,12.8,9.9,19.4,14.3C-59.4,389-59.6,389.7-59.7,390.5z M-58.9,384c-6.5-4.6-13.9-7.9-20.1-13c-0.4-3.4-1.1-6.7-2.2-9.9
	c7.3,6.3,14.6,12.7,22.4,18.3C-58.7,381-58.8,382.5-58.9,384z M-84.1,322.9c4.9,4.1,9.3,9.5,13.1,15.8c-7.3-6.1-15.5-11.5-23-16.9
	c-6.6-4.8-13.9-10.3-21.9-13.4C-104.5,310.2-93.5,315-84.1,322.9z M-124.2,307.5c0.1,0.1,0.2,0.3,0.4,0.3
	c22.8,7.6,36.4,29.7,57.4,39.7c0.1,0,0.1,0,0.2,0c1.2,2.6,2.3,5.3,3.2,8c-22.6-18-48.2-31.8-72.4-47.6
	C-131.7,307.5-127.9,307.3-124.2,307.5z M-137.9,308.4c25.3,18.5,51.7,35.4,76.9,54c0.9,3.8,1.6,7.6,2,11.3
	c-8.4-6.2-16.7-12.6-25-19c-2.9-5.4-6.9-10.3-12.4-14.4c-6.2-4.6-12.9-7.7-19.6-9.2c-10.7-7.3-21.7-13.9-33.4-19.4
	C-145.7,310.1-141.8,309.1-137.9,308.4z M-151.2,312.3c6.9,6.6,15,12.3,23.4,17.5c-3.1,0.1-6.2,0.4-9.3,1.2c-3-2.3-6.6-4-9.8-6
	c-4.2-2.6-8.1-5.6-11.9-8.9C-156.3,314.7-153.7,313.4-151.2,312.3z M-160.3,317.1c3.4,3.4,7.1,6.4,10.9,9.2c2.6,1.9,5.4,4.2,8.4,5.9
	c-2.4,0.8-4.8,1.8-7.1,3.1c-2.3-1.8-4.8-3.5-7-5.4c-3.6-2.9-7.1-5.9-10.6-8.9C-164,319.6-162.2,318.3-160.3,317.1z M-167.6,322.5
	c3.5,3.1,6.9,6.3,10.5,9.4c1.9,1.6,3.8,3.6,5.9,5.2c-1.1,0.7-2.1,1.4-3.1,2.2c-0.9-0.7-2-1.3-3.1-2c-2.2-1.4-4.3-3-6.4-4.5
	c-2.7-2-5.4-4.1-8.1-6.2C-170.5,325.1-169.1,323.7-167.6,322.5z M-174.2,329c0.3-0.3,0.6-0.6,0.9-0.9c2.3,2.6,5.1,4.7,7.8,6.9
	c2.4,1.9,5.4,4.9,8.5,6.5c-1.5,1.3-2.9,2.7-4.2,4.2c-0.1-0.3-0.3-0.6-0.6-0.8c-5.8-3.1-11.3-6.4-16.5-10.4
	C-177.1,332.6-175.7,330.8-174.2,329z M-179.3,335.8c4.8,4.5,10.2,8.5,16.1,11.4c0.2,0.1,0.4,0.1,0.5,0.1c-1.3,1.6-2.6,3.3-3.8,5.1
	c-0.5,0.8-1,1.7-1.5,2.5c-1.8-1.3-3.8-2.4-5.6-3.7c-3.5-2.5-6.8-5.2-10.1-7.9c0,0-0.1,0-0.1,0C-182.4,340.7-180.9,338.2-179.3,335.8
	z M-184.8,345.3c4.7,4,9.9,9.2,15.6,12c-1,2-1.8,3.9-2.4,5.9c-5.3-3.9-10.7-7.7-16.1-11.4C-186.9,349.7-185.9,347.5-184.8,345.3z
	 M-188.5,354.1c5.2,4.2,10.3,8.8,16,12.1c-0.5,2.1-0.9,4.2-1.1,6.3c-1.7-3-5.5-5.2-8.2-7.1c-2.8-1.9-5.7-3.4-8.8-4.8
	C-190,358.4-189.3,356.3-188.5,354.1z M-191,362.1c2.5,1.3,4.9,2.7,7.2,4.2c3.5,2.3,5.9,5.9,9.3,8.1c0.3,0.2,0.5,0.1,0.8,0
	c-0.1,3,0,6,0.5,8.9c-2.7-2.1-5.6-4.1-8.1-6.1c-3.7-3.1-7.3-6.2-11-9.3C-191.9,366-191.5,364-191,362.1z M-192.6,370.4
	c3.2,2.9,6.3,5.8,9.5,8.6c3.3,3,7,7.1,11.1,9.3c2.4,8.5,7.2,16.4,13.8,23c-11.6-10.5-23.1-21.1-35.1-31.2
	C-193.4,377-193.1,373.7-192.6,370.4z M-181.3,418.7c-4.1-5.4-7.1-11.3-9.1-17.5c6.4,7.3,15.8,14,21.7,19.1
	c7.3,6.3,14.7,12.5,22.2,18.5c1.1,0.9,2.3,1.9,3.5,3C-158.4,438.2-172.9,429.6-181.3,418.7z M-134.9,443.3c-3.4-3-7.7-5.6-10.9-8.3
	c-7.5-6.2-15-12.5-22.4-19c-6.8-5.9-13.5-11.8-19.9-18.1c-0.6-0.6-2.3-2.1-4-3.6c-0.8-3.8-1.1-7.6-1.2-11.5
	c22.7,20.7,43.7,43.5,69.1,60.9C-127.8,443.9-131.4,443.7-134.9,443.3z M-119.5,443.3c-11.7-8.3-22.5-17.4-33.2-26.9
	c2.2,1.7,4.4,3.4,6.8,4.8c3.6,2.2,8,4,12.7,5.2c6.4,6.2,14.5,10.6,22.1,15C-113.8,442.3-116.7,442.9-119.5,443.3z M-108.9,440.7
	c0.2-0.6,0.1-1.3-0.6-1.7c-7-4.5-14.8-7.2-21.5-12.1c3.8,0.8,7.7,1.2,11.5,1.1c3.2,1.9,6.3,3.8,9.5,5.7c2.2,1.3,4.5,3.1,6.8,4.4
	C-105,439.1-106.9,440-108.9,440.7z M-100.3,436.4c-2.1-1.8-4.7-2.9-7.1-4.1c-2.9-1.5-5.9-3-8.8-4.5c2.7-0.3,5.3-0.9,7.8-1.8
	c3.8,2.8,7.6,5.5,11.6,7.9C-98,434.8-99.2,435.6-100.3,436.4z M-37.5,479.2c-8.3-4.3-15.3-11.3-22.1-17.6
	c-10-9.4-19.3-21.5-31.5-28.3c-0.3-1.3-1.7-2.3-3-1.6c-0.1,0-0.2-0.1-0.3-0.1c-0.2-0.1-0.3-0.1-0.5-0.1c-3.8-2.1-7.5-4.2-11.2-6.5
	c1.5-0.8,2.9-1.8,4.2-2.9c26.8,17.7,47.3,43.3,74.9,60C-30.8,481.8-34.9,480.5-37.5,479.2z M-21.7,481.2
	c-28.9-16.7-49.4-44.3-78.7-60.5c1.4-1.4,2.6-3,3.5-4.9c0.5-0.1,1-0.4,1.4-0.8c0.1-0.1,0.3-0.3,0.4-0.4
	c25.3,21.1,50.6,43.4,77.5,62.5C-18.4,479.2-19.8,480.5-21.7,481.2z M-93.9,413.4c1.9-2,3.7-4.2,5.2-6.4
	c21.5,18.9,46.8,31.7,66.8,52.5c0.3,0.3,0.6,0.4,0.9,0.5c2.3,4.3,3.8,8.9,3.9,13.5C-40.7,451.6-67.4,431.4-93.9,413.4z"/>
</svg>
