<?xml version="1.0" encoding="utf-8"?>
<!-- Generator: Adobe Illustrator 18.1.0, SVG Export Plug-In . SVG Version: 6.00 Build 0)  -->
<svg version="1.1" id="Capa_1" xmlns="http://www.w3.org/2000/svg" xmlns:xlink="http://www.w3.org/1999/xlink" x="0px" y="0px"
	 viewBox="-273 365 64 64" enable-background="new -273 365 64 64" xml:space="preserve">
<g>
	<path fill="#FFFFFF" d="M-215.5,395.3c-1-0.1-1-0.5-0.1-1.2c0.9-0.7,1.6-1.6,1.8-1.8c0,0,0-0.1,0-0.1c0-0.1-0.1-0.1-0.2-0.2
		c0,0-0.1-0.1-0.1-0.1c-0.3-0.3-1.2,0.1-1.5,0.1c-5,1.6-4.4-1.3-6.1-4.1c-1.2-2-3.8-4.1-6.1-4.6c-0.4-0.1-0.6-0.2-0.9-0.2
		c-0.5-0.1-0.9-0.2-0.9-0.2c0,0,0-0.1,0.1-0.1c0,0,0,0,0,0c0.4-0.1,0.8-0.2,1.2-0.3c0.4-0.1,0.8-0.3,1.1-0.5
		c0.1-0.1,0.2-0.2,0.3-0.3c0.1-0.2,0-0.5,0-0.5c0-0.1,0-0.1,0.1-0.2c0.1-0.2-0.1-0.2-0.2-0.2c-0.4-0.1-0.9-0.2-1.3-0.2
		c-0.7,0-1.3,0-1.3-0.2c0-0.1,0-0.2,0-0.3c0-0.1-0.3-0.1-0.4-0.1c-0.6-0.1-1.1,0-1.6,0.1c-0.9,0.2-1.9,0.4-2.4,0.5
		c-0.3,0.1-0.7,0.2-0.8,0.3c-3.5,1.7-4.8,5.1-6.6,8.2c-0.5,1-1.4,1.5-1.9,1.1c-0.3-0.2-0.6-0.4-0.8-0.6c-1.9-1.4-4.5-2.2-6.7-3.2
		c-2.5-1.1-5.4-2.6-8.1-2.9c-0.4,0-2,0.1-2.1,0.7c-0.1,1.2,0.4,2,0.9,3.1c0.2,0.3,0.7,0.8,1.3,1.3c0.8,0.7,0.5,1.3-0.1,2.1
		c-0.3,0.4-0.4,0.9-0.2,1.7c0.2,1.4,4,3.2,4,3.2c-0.3,0.1-2.1,0.8-1.9,1.5c0.2,1.4,1.7,2.4,3,2.8c2.6,0.7,2.5-0.6,1.4,1.6
		c-0.7,1.2,0.4,2.6,1.6,2.8c0.3,0.1,0.6,0.1,0.9,0.2c0.5,0.1,0.2,0.6-0.8,1.1c-3.8,2.1-7.4,2.5-11,1.3c-1-0.3-2.3-1.1-2.9-1.4
		c-0.4-0.2-0.7-0.4-1.1-0.5c-0.3-0.2-2.5,0.3-2.2,0.7c6.5,9.5,21.4,11,31.5,7.6c4.8-1.6,9.7-3.9,13-7.9c1.8-2.2,3.1-6.4,6-7.2
		c1.4-0.4,2.7-1,3.8-2c0.1-0.1,0.2-0.2,0-0.3C-214.2,395.5-214.8,395.3-215.5,395.3z M-230.7,382.8
		C-230.5,382.8-230.5,382.8-230.7,382.8C-230.9,382.8-230.9,382.8-230.7,382.8z M-219.5,397.8c-3,1.3-3.5,3.9-5.4,6.5
		c-5.4,7.8-17.2,11-27.2,9c-1.1-0.2-1.3-1-0.6-1.8c0.8-0.7,1.4-1.3,1.3-1.3c0,0-0.6,0.6-1.4,1.3c-0.7,0.7-1.8,1.2-2.4,1
		c-0.6-0.2-0.7-0.7-0.3-1.2c0.4-0.4,0.4-0.5-0.1,0c-0.5,0.4-1.7,0.5-2.7,0c-1.5-0.7-2.8-1.5-4-2.5c-0.9-0.7-1.4-1.3-1.4-1.3
		c0.1,0,0.2,0.1,0.3,0.1c0.1,0.1,0.2,0.1,0.2,0.1c0,0,0.9,0.3,2,0.5c0.5,0.1,0.9,0.2,1.4,0.2c1.1,0.1,1.7,0.3,1.3,0.6
		c-0.4,0.3-0.3,0.7,0.2,0.8c0.5,0.1,1.4-0.3,2-0.8c0.6-0.6,2-1.2,3-1.5c2.5-0.7,5.2-1.8,5.9-3.8c0.1-0.3-0.5-0.2-0.6-0.2
		c-0.4,0-0.7,0-1-0.1c-0.5-0.1-0.6-0.6-0.3-1s0.5-0.6,0.4-0.6c-0.1,0-0.2,0-0.2,0c-0.2,0-0.4-0.1-0.6-0.1c-0.3-0.1-0.4-0.6-0.2-1
		c0.2-0.4,0.6-0.8,0.7-0.9c0.1-0.1,0.1-0.1,0.1-0.2c0,0,0-0.1,0-0.1c0-0.1-0.3-0.1-0.4-0.1c-1.1,0-1.9-0.1-2.6-0.2
		c-1.1-0.3-1.3-1.4-1-1.8c0.4-0.4,0.4-0.8,0.2-0.9c-0.2-0.1-0.5-0.2-0.5-0.2c-0.1,0.1,0.1-0.2,0.3-0.5c0.2-0.2,0.3-0.4,0.5-0.5
		c0.1-0.1,0.2-0.2,0-0.3c-0.2-0.1-0.7-0.4-1.4-0.8c-0.7-0.5-1.3-1.1-1.1-1.4c0.1-0.1,0.2-0.2,0.4-0.3c0.1,0,0.1,0,0.2,0
		c0.1,0,0.4-0.2,0.6-0.4c0.2-0.2,0.3-0.5,0.2-0.6c-0.1-0.1-0.2-0.1-0.2-0.2c-0.1-0.1-0.3-0.2-0.4-0.3c-0.2-0.2-0.7,0.1-1.1,0.5
		c-0.4,0.4-1,0.6-1.2,0.4c-0.2-0.2-0.1-0.7,0.2-1c0.3-0.3,0.8-0.6,1.1-0.7c0.2-0.1,0.3-0.2,0.4-0.4c0.1-0.7-0.7-1.4-1.5-2.2
		c-0.8-0.8-1.2-1.6-1-1.8c0.2-0.2,1-0.2,1.7,0.1c0.7,0.3,1.2,0.6,1.2,0.7c-0.1,0.1,0.2,0.3,0.6,0.4c0.4,0.2,0.8,0.2,0.9,0.2
		s0.1-0.1,0.2-0.1c0,0,0,0.1,0,0.1c-0.1,0.1-0.1,0.1-0.1,0.1c0,0,0.1,0,0.1-0.1c0.1-0.1,0.3,0,0.7,0.2c0.3,0.1,0.5,0.3,0.5,0.3
		c0,0,0.2,0.2,0.6,0.3c0.3,0.1,0.6,0.3,0.5,0.3c0,0-0.3,0.4-0.5,0.8c-0.1,0.2-0.3,0.5-0.4,0.8c-0.1,0.1-0.1,0.2-0.1,0.3
		c-0.1,0.2,0.3-0.1,0.9-0.7c0.6-0.5,1.2-0.9,1.4-0.8c0.1,0.1,0.2,0.1,0.3,0.2c0.2,0.1,0.3,0.2,0.5,0.2c0.3,0.1,0,0.7-0.5,1.2
		c-0.5,0.5-1.1,1.2-1.4,1.7c-0.1,0.2-0.3,0.5-0.4,0.8c-0.1,0.1-0.1,0.2-0.1,0.3c-0.1,0.2,0.5-0.3,1.3-1c0.3-0.2,0.5-0.5,0.8-0.8
		c0.8-0.7,2.2-0.8,3.1-0.2c0.2,0.1,0.3,0.2,0.5,0.3c1,0.5,1.4,1.1,0.8,1.6c-0.6,0.5-0.8,1.1-0.5,1.4c0.1,0.1,0.3,0.3,0.5,0.4
		c0,0,0.1,0,0.1,0.1c0,0,0.5-0.4,1.1-0.9c0.6-0.5,1.1-1.1,1.2-1.4c0.1-0.1,0.1-0.3,0.2-0.4c0-0.1,0.1-0.1,0.1-0.2
		c0.1-0.1,0.1-0.2,0.2-0.2c0,0,0,0,0.1,0c2.8-1.7,3.2-5.5,5.1-8.2c0.6-0.9,1.7-1.5,2.2-1.6c0.4-0.1,0.8-0.2,0.8-0.3
		c1.2-0.7,0.1,0.1-0.2,0.2c-0.9,0.4-0.2,0.7,0.4,0.5c3.6-0.7,1.2-0.1-0.2,1c-0.3,0.2,0.1,0.4,0.3,0.4c0.3,0,0.5,0,0.8,0
		c0.4,0,0.4,0.4-0.1,0.9c-0.5,0.5-1.1,1.2-1.3,1.6c-0.1,0.2-0.3,0.5-0.4,0.8c-0.1,0.1-0.1,0.2-0.1,0.3c-0.1,0.2,0.5-0.3,1.3-1
		c0.3-0.3,0.6-0.6,1-0.9c0.8-0.7,1.8-1.3,2.1-1.2c0.3,0.1,0.6,0.2,0.6,0.3c0,0-0.2,0.4-0.4,0.8c-0.1,0.2-0.3,0.5-0.4,0.8
		c-0.1,0.1-0.1,0.2-0.1,0.3c-0.1,0.2,0.3-0.1,0.9-0.6c0.6-0.5,1.3-0.8,1.6-0.6c0.3,0.2,0.5,0.4,0.5,0.4s0,0.1,0.1,0.1
		c0.1,0,0.9,0.5,1.6,1.3c0.9,0.9,1.7,2,2.4,3.2c1,1.7,0.3,2.3,1.8,3.1c0.8,0.4,2.9,0.1,3.5,0c5.2-0.9-0.4,1.1-2.5,2
		c-0.1,0-0.7,0.3-0.4,0.5c0.1,0.1,0.3,0.2,0.4,0.3c0,0,0.1,0,0.1,0c0,0,0.1,0,0.1,0c0.1,0,0.8,0.1,1.6,0.2c0.4,0,0.8,0.1,1.5,0.1
		C-216,396.4-219,397.6-219.5,397.8z"/>
</g>
</svg>
