<?xml version="1.0" encoding="utf-8"?>
<!-- Generator: Adobe Illustrator 18.1.0, SVG Export Plug-In . SVG Version: 6.00 Build 0)  -->
<svg version="1.1" id="Capa_1" xmlns="http://www.w3.org/2000/svg" xmlns:xlink="http://www.w3.org/1999/xlink" x="0px" y="0px"
	 viewBox="-205 297 200 200" enable-background="new -205 297 200 200" xml:space="preserve">
<g>
	<path fill="#FFFFFF" d="M-11.4,341c-0.8-1-2-0.9-2.7-0.2c-0.2-0.7-0.7-1.2-1.5-1.3c-29.1-2.7-58.1,3.3-87.2,3.3
		c-30.6,0-61.3-0.7-91.8,0.4c-0.1,0-0.1,0.1-0.2,0.1c-0.9-0.9-2.9,0-2.7,1.6c3.6,23.8-1.3,47.8-2.1,71.7c-0.3,8.5-3.9,28.9,0.8,36.8
		c0,0,0,0,0.1,0c0,0,0.1,0,0.1,0.1c0.1,0.1,0.1,0.1,0.2,0.2c-0.3,0.7,0.1,1.9,1,1.8c33.8-3.5,67.6-0.6,101.4-2.2
		c25.7-1.2,51.5,1.9,77,0.4c0.5,0,0.8-0.2,1.1-0.5c1,0,2,0,3.1,0c0.9,0,1.6-0.7,1.6-1.6c0.7-24.2-0.1-48.5,1.6-72.7
		C-11.1,370.2-5.6,348.5-11.4,341z M-109.9,346.3c29.4,0,58.7-4.7,88.1-3.8c-4.9,2.5-9.3,7.4-12.6,10.8
		c-8.4,8.8-15.9,17.6-25.7,24.8c-8.3-13.6-25.6-22.6-42.7-24.2c-10.3-1-20.2,0.9-28.8,5c-0.1-0.1-0.1-0.1-0.2-0.2
		c-0.5-0.4-1.1,0.2-0.7,0.7c-4.2,2.1-8.1,4.7-11.4,7.8c-0.1-0.1-0.1-0.1-0.2-0.2c-0.4-0.4-1.1,0.2-0.7,0.7c0.1,0.1,0.1,0.1,0.2,0.2
		c-2.9,2.7-5.4,5.8-7.5,9.2c-8.1-4-15.5-8.4-22.8-13.7c-7.1-5.2-12.7-11.7-19.2-17.4C-166.1,346.9-138,346.3-109.9,346.3z
		 M-92,359.9c11.8,12.1,21.7,25.8,33.6,37.8c0,1.9-0.2,3.8-0.5,5.7c-7.9-18-25.7-34.3-41.4-46c5.5,0.7,10.8,2,15.8,3.9c0,0,0,0,0,0
		c5.6,3.8,10.3,8.6,14.4,14c3.4,4.5,6.4,9.7,10.5,13.5c0.4,1.9,0.8,3.8,0.9,5.7c-10.5-12.1-21-24.6-32.9-35.3
		C-91.8,359-92.4,359.5-92,359.9z M-77.9,405.1c1.1-0.8,5.6,5.5,6.2,6.3c1.2,1.6,2.4,3.2,3.5,4.8c0.1,0.2,0.3,0.4,0.4,0.6
		c-0.8,0.6-1.7,1.2-2.6,1.7c-0.9-1.9-2.7-3.6-4-5.1c-1.8-2.2-3.7-4.5-5.6-6.7c0.8-1.1,1.4-2.4,1.9-3.7c0.7-1.9,1.2-3.8,1.5-5.6
		c3.8,5.7,7.7,11.2,12.2,16.3c-0.6,0.7-1.3,1.3-2.1,2c-1.5-2.5-3.7-4.8-5.4-6.9c-1.1-1.4-4.3-5.9-6.5-4
		C-78.4,404.9-78.1,405.3-77.9,405.1z M-124.8,434.6c-3-3.1-5.9-6.2-8.7-9.4c2,1.2,4.2,2.2,6.4,3c0,0.1,0,0.3,0.1,0.4
		c1.7,2.2,3.7,4.2,5.7,6.2c1.7,1.5,3.4,3.4,5.4,4.6c-6.7-1.4-13.2-3.6-19.3-6.8c-8.9-9-14.7-20.2-21.3-31.1c0-3.7,0.6-7.4,1.6-11
		c0.4,1.5,1,2.9,1.8,4.3c1,1.7,2.5,3.8,4.3,4.8c0.1,3,0.5,5.8,1.3,8.5c-2.8-3.9-5.4-7.9-7.8-12.2c-0.2-0.4-0.9-0.1-0.7,0.4
		c4,8.4,9.1,16.1,14.8,23.4c4.3,5.7,9.3,12.3,15.4,16.1C-125,436.2-124.3,435.2-124.8,434.6z M-100.2,435.7c0.9,1.4,1.9,2.9,3.2,4.1
		c-0.1,0.6-0.3,1.3-0.5,1.9c-0.1,0-0.1,0.1-0.1,0.1c-0.2,0-0.5-0.1-0.7-0.1c-1.7-1.3-3.5-2.4-5.1-4c-1.9-1.8-3.6-3.8-5-6.1
		c2.1,0.1,4.1,0.3,6.2,0.6C-101.6,433.4-100.9,434.6-100.2,435.7z M-100.8,432.4c2.9,0.3,4.3,2.1,4.1,5.4c-0.8-0.9-1.6-1.8-2.3-2.7
		C-99.6,434.2-100.2,433.3-100.8,432.4z M-105.1,438.3c0.8,0.9,1.8,2,2.9,3c-0.9-0.1-1.8-0.2-2.7-0.3c0-0.1-0.1-0.2-0.1-0.3
		c-1.7-1.5-4-2.5-5.9-3.8c-2.5-1.8-4.7-4-6.6-6.4c0.9,0.2,1.8,0.4,2.7,0.5c1.6,0.2,3.2,0.3,4.8,0.4c0,0,0,0,0,0
		C-108.6,434-106.9,436.2-105.1,438.3z M-112.3,437.5c1.2,1,2.6,2.2,4.1,3.1c-2.1-0.3-4.3-0.6-6.4-1c0.2-0.2,0.3-0.4,0.1-0.7
		c-1.5-2-3.9-3.5-5.8-5.1c-1.8-1.6-3.6-3.3-5.3-5.1c2.2,0.7,4.4,1.2,6.7,1.7c0,0.1,0,0.1,0,0.2C-117,433.2-114.8,435.5-112.3,437.5z
		 M-156.3,404.8c0-0.3,0-0.6-0.1-1c3.2,6,6.3,12,9.8,17.8C-150.2,416.3-153.3,410.6-156.3,404.8z M-147.4,423.6
		c-4.3-4.3-7-9.2-8.2-14.4C-153.3,414.2-150.5,419.1-147.4,423.6z M-154.3,388.8c0.4-1.2,0.9-2.4,1.4-3.6c0.7,2.8,2.1,5.9,4.7,7.1
		c0,0,0.1,0,0.1,0c-0.1,0.6-0.3,1.2-0.3,1.8c-0.2,1.2-0.2,2.4-0.3,3.6c-0.9-1-2-1.9-2.8-3C-152.9,393-153.9,391-154.3,388.8z
		 M-147.9,391.2c-0.9-1-1.9-1.8-2.6-3c-0.9-1.3-1.3-2.8-1.7-4.4c0.5-1.1,1.1-2.1,1.6-3.2c0.6,0.9,1.3,1.7,1.9,2.6
		c0.8,1.1,1.5,2.4,2.3,3.5C-147,388.3-147.5,389.7-147.9,391.2z M-147.4,383.3c-0.9-1.2-1.8-2.3-2.7-3.5c0.6-1,1.3-1.9,1.9-2.9
		c0.7,1,1.4,1.9,2.1,2.8c0.7,0.8,1.3,1.6,2,2.3c-0.7,1.1-1.3,2.2-1.8,3.4C-146.4,384.7-146.9,384-147.4,383.3z M-147.6,376
		c0.7-1,1.4-1.9,2.2-2.8c0.7,0.9,1.4,1.8,2.2,2.7c0.6,0.7,1.3,1.5,2.1,2.2c-0.8,1-1.7,2-2.4,3.1C-144.7,379.4-146.2,377.7-147.6,376
		z M-105.2,361.1c0.5,0.5,1,0.9,1.5,1.4c-0.7-0.1-1.4-0.2-2.1-0.2c-0.8-0.1-1.6,0-2.4,0c-1.1-0.9-2.2-1.7-3.2-2.6
		c-1.1-0.9-2.3-1.6-3.5-2.4c2-0.2,3.9-0.3,5.9-0.4C-107.8,358.4-106.5,359.8-105.2,361.1z M-107.3,357c1.7,0,3.5,0.2,5.2,0.4
		c3.1,2.8,6.2,5.6,9.2,8.4c-2.3-1.1-4.7-2-7.3-2.6c-1.3-1.1-2.7-2-3.9-3.1C-105.3,359.1-106.3,358-107.3,357z M-111.8,361.1
		c0.5,0.4,0.9,0.9,1.4,1.3c-1.2,0.1-2.4,0.2-3.6,0.4c-0.8-0.6-1.7-1-2.6-1.6c-1.2-0.8-2.3-1.9-3.3-3c1.2-0.3,2.4-0.4,3.6-0.6
		C-114.7,358.6-113.2,359.8-111.8,361.1z M-116.3,363.2c-1.2,0.3-2.4,0.6-3.6,1c-1.9-1.4-3.7-2.7-5.3-4.6c1.3-0.4,2.7-0.8,4.1-1.1
		C-119.9,360.2-118.2,362-116.3,363.2z M-121.8,364.9c-0.8,0.3-1.6,0.6-2.4,0.9c-0.8-0.8-1.7-1.6-2.5-2.3c-0.8-0.8-1.7-1.6-2.5-2.4
		c0.9-0.4,1.9-0.7,2.8-1C-125.2,361.6-123.6,363.4-121.8,364.9z M-128.2,363.9c0.8,0.8,1.5,1.7,2.4,2.6c-1,0.5-1.9,0.9-2.8,1.5
		c-1.1-1-2.3-1.9-3.5-2.7c-0.7-0.6-1.5-1-2.3-1.6c1.3-0.8,2.6-1.5,4-2.1C-129.7,362.3-128.9,363.1-128.2,363.9z M-132.4,366.4
		c0.8,0.7,1.6,1.5,2.5,2.2c-1.1,0.7-2.2,1.4-3.3,2.2c-0.6-1-1.7-1.7-2.5-2.5c-0.8-0.7-1.5-1.5-2.3-2.2c0.9-0.7,1.8-1.3,2.7-1.9
		C-134.4,364.9-133.4,365.6-132.4,366.4z M-136.6,369.1c0.7,0.8,1.4,1.8,2.4,2.4c-1.1,0.8-2.1,1.7-3.1,2.6c-0.8-0.9-1.7-1.7-2.5-2.6
		c-0.7-0.7-1.4-1.4-2-2.2c1-0.9,2-1.8,3-2.7C-138.1,367.5-137.3,368.3-136.6,369.1z M-141,371.7c0.9,1.1,1.9,2.2,2.8,3.3
		c-0.7,0.7-1.4,1.3-2,2.1c-0.6-0.5-1.2-0.9-1.7-1.4c-1-0.9-2-2-2.9-3.1c0.7-0.9,1.5-1.7,2.3-2.5C-142.1,370.6-141.5,371.2-141,371.7
		z M-126.7,370.4c2.7-1.5,5.5-2.7,8.5-3.5c0.1,0,0.2,0.1,0.3,0.1c0.4,0.1,0.6-0.1,0.7-0.4c8.1-2.1,16.9-1.5,24.4,2
		c5.1,2.4,8.6,6.8,11.3,11.6c1.7,3,2.4,6.2,2.6,9.5c-3.8,1.8-7.4,4.2-10.7,6.8c0.6-5.4,5.5-15.3,1.8-19c-4.2-4.2-7.9-2.2-10,1.5
		c-0.3,0-0.6,0.2-0.4,0.5c0,0,0,0.1,0.1,0.1c-0.1,0.2-0.3,0.5-0.4,0.7c-3.5-8.3-11.5-9.1-19.6-4.8c-6.1,3.3-11.7,8.6-15.1,15
		c-3-1.7-6.1-3.2-9.2-4.8C-138.8,379.4-132.9,374-126.7,370.4z M-78.9,393.1c-0.1,1.1-0.1,2.1-0.3,3.2l-0.8,3
		c-1.2,7.1-4.4,6.9-9.4-0.7C-86,396.7-82.5,394.8-78.9,393.1z M-90.5,384.2c-0.3,1.8-0.7,3.6-1.1,5.4c-0.9-1.9-1.9-3.7-3-5.5
		C-93.2,384.1-91.8,384.2-90.5,384.2z M-108.5,377c1,1.7,2.1,3.3,3.2,5c1.1,1.7,2.1,3.6,3.2,5.3c-0.6-0.2-1.2-0.4-1.8-0.4
		c-2.2-3.6-4.6-7-7.2-10.3c1-0.2,2-0.2,3-0.1C-108.4,376.4-108.7,376.7-108.5,377z M-121.6,398.3c-2.5,3.1,7.7,8.4,14,8.2
		c-2.6,2.6-5.8,4.8-9.2,5c-3,0.2-4.8-2.2-6-4.5c-2.1-4.1,0.1-8.2,3-11.2c2.8-2.9,6.7-4.8,10.6-5.8c2.1-0.6,3.8-0.4,5.6-0.1
		c1.1,2,2.1,4,3.1,6c-0.6,2.3-2.5,5-3.4,6.3c-0.2,0.2-0.4,0.5-0.5,0.7c0,0-0.1,0-0.1,0c-1.5,0.2-2.7,0.7-4.2,0.6
		c-1.8,0-3.5-0.7-5.2-1.3c-1.6-0.6-3-1.3-4.5-2.2c-0.6-0.4-1.8-1.7-2.1-1.1C-120.5,398.5-121.2,397.8-121.6,398.3z M-130.6,392.2
		c0.9-1.6,1.9-3.1,3.1-4.6c0.7,2.6,1.9,5.8,3.7,7.9c-1.4,1.7-2.3,3.8-2.6,6c-1.1-2.8-2.3-5.4-3.8-8
		C-130.2,393.1-130.2,392.6-130.6,392.2z M-126.8,386.8c1.2-1.4,2.5-2.7,3.8-3.9c0.7,1.3,1.5,2.6,2.3,3.9c0.7,1.2,1.4,2.7,2.4,3.8
		c-0.5,0.3-0.9,0.7-1.3,1c-1.4-2.6-3.2-4.8-3.4-7.9c0-0.4-0.6-0.4-0.6,0c0,2.4,1.1,6.8,3.3,8.4c-1,0.8-1.9,1.6-2.7,2.5
		C-124.6,392.1-125.9,389.6-126.8,386.8z M-112.9,383.3c0.8,1,1.6,1.9,2.3,2.9c0.2,0.3,0.5,0.6,0.7,0.9c-0.1,0-0.1,0-0.2,0
		c-0.9,0.2-1.8,0.5-2.7,0.8c-2.4-2.5-4.2-5.3-5.7-8.4c0.5-0.3,0.9-0.6,1.4-0.9C-115.6,380-114.2,381.7-112.9,383.3z M-116.3,378.2
		c1.4-0.7,2.9-1.3,4.3-1.6c2.4,3.2,4.6,6.6,6.5,10c-1.1,0-2.1,0.1-3.1,0.2c-0.6-1.4-2.1-2.8-2.9-3.8
		C-112.9,381.4-114.5,379.6-116.3,378.2z M-116.6,384.9c0.7,1.1,1.5,2.5,2.6,3.4c-1.2,0.5-2.3,1.1-3.4,1.8c-0.3-1.2-1.4-2.3-2.1-3.3
		c-1-1.4-2-2.9-2.8-4.4c1.1-0.9,2.2-1.7,3.4-2.5C-118.3,381.6-117.5,383.3-116.6,384.9z M-133,398.7c1.9,6.6,4.7,12.9,8.7,18.5
		c-5.1-3.6-8.9-9.3-9-15.8C-133.3,400.5-133.2,399.6-133,398.7z M-132.6,397.1c0.2-0.8,0.5-1.6,0.8-2.4c0.4,0.1,0.8-0.1,1.1-0.4
		c1.6,3.6,2.8,7.3,4.1,11c0.2,2.2,0.9,4.2,2.2,5.9c1.2,3,2.6,5.8,4.4,8.5c-0.4-0.2-0.9-0.3-1.3-0.5c0,0,0-0.1,0-0.1
		C-126.2,412.2-130,405-132.6,397.1z M-121.5,413.6c0.9,0.5,1.9,0.8,3,1c0.7,0.1,1.4,0.1,2,0.1c0.8,1.4,1.7,2.7,2.8,3.8
		c0.7,0.8,1.5,1.7,2.4,2.4c-2,0.2-4,0-6.1-0.5C-119,418.3-120.3,416-121.5,413.6z M-112.4,418.1c-1.1-1.1-2.1-2.3-2.9-3.5
		c1.2-0.2,2.4-0.6,3.6-1.2c0.8,1,1.5,2.1,2.4,3.1c0.9,1.1,1.9,2.3,3.2,3c-1.1,0.6-2.2,1-3.4,1.3C-110.4,419.8-111.5,419-112.4,418.1
		z M-108,416.1c-1-1-1.8-2.1-2.7-3.2c0.9-0.5,1.8-1.2,2.7-1.9c1.4,2.2,3,4.7,5,6c-0.7,0.7-1.4,1.3-2.2,1.8
		C-106,417.8-107.1,417.1-108,416.1z M-104.6,413.5c-0.9-1-1.7-2.2-2.5-3.3c1.2-1.1,2.4-2.3,3.4-3.4c0.5,1.4,1.1,2.8,1.8,4.1
		c0.4,0.8,0.9,1.7,1.5,2.6c-0.6,1-1.1,1.9-1.8,2.7C-102.9,415.2-103.8,414.4-104.6,413.5z M-100.7,410.2c-0.9-1.4-1.6-2.9-2.2-4.4
		c0.7-0.9,1.4-1.7,2-2.6c0,0,0.1-0.1,0.1-0.1c0.9,2.4,1.8,4.8,2.9,7.2c-0.6,0-1.2,0.3-1.5,1c-0.1,0.1-0.1,0.2-0.2,0.4
		C-100,411.2-100.4,410.7-100.7,410.2z M-100,401.7c0.3-0.6,0.7-1.4,1-2.2c3.5,7.5,7,15,11.2,22.2c-0.2-0.1-0.5-0.1-0.7-0.2
		C-92.8,414.9-96.9,408.8-100,401.7z M-98.2,397.3c1-3.1,1.3-6.3-1.2-7.2c0.1-0.2,0.1-0.5,0-0.7c-0.4-0.7-0.9-1.3-1.6-1.7
		c0,0,0-0.1,0-0.1c-1.4-4-4.7-7.5-6.9-11.1c-0.1-0.1-0.1-0.1-0.2-0.2c3.5,0.4,6.6,2.4,8.7,6.9c-0.3,1.9,2.6,2.6,3,0.7l0.6,0
		c1.2,2.2,2.4,4.5,3.6,6.7c0.1,0.2,0.2,0.3,0.4,0.3c-0.4,1.6-0.7,3.4-0.9,5c0,0.1,0,0.3,0,0.4c-2.7-4.8-5.5-9.6-8.2-14.4
		c-0.3-0.5-1-0.1-0.8,0.5c3,6.2,6,12.4,9.2,18.6c0.4,2.6,1.4,5.2,3.1,6.9c0.3,0.3,0.6,0.5,0.9,0.7c2.5,4.6,5,9.1,7.7,13.5
		c-1.7,0.2-3.3,0.2-4.9-0.1C-90.2,414-94,405.6-98.2,397.3z M-85.4,409.9c0.5,0,1,0,1.4-0.1c2.5,3.8,5,7.8,7.7,11.5
		c-1,0.3-2.1,0.6-3.1,0.8C-81.3,418-83.3,413.9-85.4,409.9z M-83.2,409.6c1-0.4,1.9-1.1,2.7-2c1.4,1.9,2.9,3.7,4.4,5.6
		c1.4,1.8,2.9,4.5,4.7,6.1c-1.1,0.6-2.3,1.2-3.5,1.6C-77.6,417-80.3,413.2-83.2,409.6z M-76.2,396.2c0.2-1.5,0.3-3.1,0.3-4.5
		c0.4-0.2,0.7-0.4,1.1-0.5c4,6.5,8.5,13,13.7,18.5c-0.6,1-1.3,1.9-2.1,2.9C-67.7,407.2-72.1,401.9-76.2,396.2z M-73.9,389.9
		c0-0.6-0.4-1.3-1.1-1.5c-0.4-0.6-0.8-1.1-1.2-1.7c-0.1-0.1-0.2-0.2-0.3-0.2c-0.4-1.9-0.9-3.7-1.6-5.4c6.8,7.7,13,15.9,18.6,24.8
		c0,0,0,0,0,0c-0.2,0.7-0.5,1.4-0.8,2C-64.5,401.8-69.4,396-73.9,389.9z M-80.2,363.1c0.5,0.2,0.9,0.4,1.4,0.6
		c8.5,4.2,14.7,11.6,17.9,20.1c-2.8-3.7-6-7.3-9-10.7C-73.1,369.6-76.4,366.1-80.2,363.1z M-197.6,451.3
		c-1.5-9.5,3.2-78.6,3.4-100.9c3.7,5.6,11.6,10.7,15.8,13.9c7,5.5,15.9,13,24.9,15.1c-2.8,5.2-4.7,10.9-5.4,17.3
		c-0.9,7.6,0.3,14.1,2.9,19.6c0,0,0,0,0,0C-171.1,425.5-184.9,439-197.6,451.3z M-19.9,450.7c-25.2-2.2-50.8-3.1-76.1-1.1
		c-33.6,2.7-67.3-1.9-100.8,3.3c13.8-11.4,28.9-22.2,41.8-34.6c10.4,18.2,37.3,25,57.8,26.4c0.9,0.1,1.4-0.6,1.4-1.3
		c3.4-0.4,6.8-2.3,5.5-6.7c-1.8-6.1-8.1-7.4-13.9-8c-16.6-1.6-34.3-4-40.6-22.2c-2.3-6.7-1.3-13.2,1.5-19c2.8,2,5.9,3.7,8.9,5.5
		c-1.1,2.7-1.9,5.5-2,8.3c-1,20.2,27.6,30.8,38.2,14.3c0,0,0,0,0.1,0c0.1,0.1,0.3,0.1,0.4,0.1c2.3,5.5,6.8,8.4,12.1,9.3
		c0.3,0.5,0.6,0.9,0.9,1.4c0.5,0.7,1.6,0.1,1.2-0.7c-0.1-0.2-0.2-0.3-0.3-0.5c4.2,0.4,8.8-0.3,12.9-2.1c6.8,5.2,16.1,8.6,23.6,12.4
		c6.2,3.1,12.5,6.2,18.6,9.5c1.4,0.7,8.7,3.7,9.8,5.2C-19.3,450.4-19.5,450.6-19.9,450.7z M-16,391.2c-0.4,15.1-0.4,30.2-0.6,45.3
		c0,3.1,0.9,8.6-0.6,11.8c-5.7-7.1-40.1-20.8-51.3-26.2c4.7-2.6,8.7-6.4,10.6-11.2c4.8-12.1,3.4-23-1.7-32
		c8.2-0.8,14.8-9.3,19.9-14.9c7.4-8.1,14.5-18.2,25.8-20.3c0,0,0,0,0,0C-9.1,356-15.7,378.4-16,391.2z"/>
</g>
</svg>
