<?xml version="1.0" encoding="utf-8"?>
<!-- Generator: Adobe Illustrator 18.1.0, SVG Export Plug-In . SVG Version: 6.00 Build 0)  -->
<svg version="1.1" id="Capa_1" xmlns="http://www.w3.org/2000/svg" xmlns:xlink="http://www.w3.org/1999/xlink" x="0px" y="0px"
	 viewBox="-273 365 64 64" enable-background="new -273 365 64 64" xml:space="preserve">
<g>
	<path fill="#FFFFFF" d="M-246.5,404.3c0.6-0.5,1-1,1-1C-245.5,403.3-246,403.8-246.5,404.3C-247.1,404.9-247.1,404.9-246.5,404.3z"
		/>
	<path fill="#FFFFFF" d="M-252.1,398.1c3.7,0,2.5,6.9,2.5,8.7c0,3.7,0,7.4,0,11.1c0,1.4-0.7,5.6,1.4,6.1c2.5,0.7,12.3,1.9,12.3-2.7
		c0-6.1,0-12.2,0-18.2c0-1,0-2,0-2.9c0-2.6,2.3-2,3.9-2c2.6,0,4.1-0.9,4.4-3.6c0.3-2.4,1.5-6.2-2.1-6.2c-1.3,0-2.6,0-3.9,0
		c-2.9,0-3.1-7.1-1-7.1c1.8,0,4.6,0.4,6.2-0.7c2.3-1.5,1.7-6,1.1-8.2c-0.7-2.6-8.7-1.4-10.7-1.3c-4.6,0.1-9.2,2.4-10.9,6.6
		c-0.4,1-0.6,1.9-0.6,2c0,0,0,0,0,0c-0.2,2.2,0.8,8.5-2.1,8.7c-2.4,0.2-3.8,1.5-3.8,3.9C-255.3,395-255.7,398.1-252.1,398.1z
		 M-246.9,377.4c0.9-2,2.3-3.3,4.2-4.1c1-0.4,1.3,0,0.5,0.8c-1.3,1.3-2.5,2.5-3.8,3.8C-246.8,378.6-247.3,378.4-246.9,377.4z
		 M-252.4,390.2c0.4-0.5,0.9-0.9,1-0.9c0.1,0-0.3,0.4-0.8,1c-0.6,0.6-1,1-1,0.9C-253.2,391.1-252.9,390.6-252.4,390.2z
		 M-253.3,391.8c0-0.1,0-0.2,0-0.2c0-0.1,0.5-0.7,1.1-1.3c0.6-0.6,1.7-1.3,2.4-1.6c0.7-0.3,1.1-0.5,0.9-0.3
		c-0.2,0.2-0.5,0.4-0.6,0.5c-0.1,0.1,0.2,0,0.8-0.2c0.3-0.1,0.7-0.1,1-0.2c0.1,0,0.2,0,0.3,0c0.1,0,0.5-0.3,0.7-0.5s0.7-1,0.9-1.7
		c0.1-0.7-0.3-0.8-0.9-0.3c-0.6,0.6-0.9,0.7-0.8,0.2c0.1-0.5,0.5-1.3,1-1.8s0.9-0.9,0.9-0.9s-0.4,0.4-0.9,0.9
		c-0.5,0.5-0.9,0.9-0.9,0.8c0,0,0.4-0.5,0.9-0.9c0.5-0.5,0.9-1.2,0.9-1.7c0-0.5-0.4-0.5-0.8-0.1c-0.3,0.2-0.5,0.5-0.8,0.7
		c0,0,0,0-0.1,0.1c0,0-0.1-0.6-0.2-1.5c-0.1-0.8,0.5-2.1,1.2-2.9c0.7-0.7,1.7-2.2,2.3-3c0.6-0.8,1.3-1.4,2.1-2
		c0.9-0.7,1.8-1.1,1.9-1.2c0.1-0.1,1-0.3,2.1-0.4c1.8-0.2,3.7-0.2,5.5-0.2c4.6,0,4.9,8.6,0.6,8.6c-1.6,0-4-0.2-5.2,1.2
		c-1.6,1.9-1.3,5.5,0.4,7.2c2.7,2.7,8.1-2.8,7.2,4.5c-0.2,1.9,0,4-2.6,4c-0.9,0-1.8-0.1-2.7,0.1c-5.2,1.4-3.3,9-3.3,13.2
		c0,3.3,0,6.6,0,9.9c0,4-3.4,3.1-6.5,3.1c-0.4,0-0.7,0-0.9-0.1c-0.5-0.1-0.8-0.4-0.6-0.6c0.1-0.2,0.1-0.2,0,0
		c-0.2,0.1-0.6,0.1-0.8-0.1c-0.3-0.2-0.2-0.7,0-0.9c0.1-0.1,0.3-0.3,0.4-0.4c0.1-0.1,0.2-0.2,0.2-0.2c0.1-0.1,0.2-0.8,0.2-1.5
		c0-0.7-0.4-0.8-0.9-0.3c-0.5,0.5-1,0.3-1-0.6c0-0.5,0-1,0-1.5c0,0,0-0.1,0-0.1c0-0.1,0.4-0.6,0.9-1.2c0.5-0.6,0.9-1.6,0.9-2.4
		c0-0.8-0.4-1-0.9-0.5s-1,0-1-1.1c0-0.1,0-0.2,0-0.3c0-1.1,0.4-2.4,0.9-3c0.5-0.5,0.9-1.2,0.9-1.5c0-0.2,0-0.3,0-0.5
		c0,0,0-0.1,0-0.1c0,0-0.4,0.3-1,0.8c-0.5,0.5-1,0.2-1-0.7c0-0.5,0-1,0-1.5c0-0.6,0-1.3,0-2c0-1.1,0.4-2.3,0.8-2.7
		c0.4-0.4,0.7-1,0.5-1.4c-0.2-0.3-0.6-0.3-0.9,0c-0.3,0.3-0.6,0.2-0.6-0.1c0-0.2-0.1-0.4-0.1-0.6c0-0.1,0-0.1-0.1-0.2
		c0-0.1-0.1-0.2,0-0.2c0,0,0-0.1,0-0.1c-0.1,0-0.5-0.5-1.3-0.8c-0.5-0.1-1-0.2-1.4-0.2c0,0,0,0,0,0c0,0,0,0,0-0.1
		c0,0-0.1-0.2-0.2-0.5c-0.1-0.2-0.3-0.3-0.6,0c-0.2,0.2-1.1,0.1-1.4-0.7c-0.4-0.8,0.1-1.9,0.6-2.4c0.5-0.5,1-1,1-1.1
		c0,0,0-0.1,0-0.1c0-0.4,0-0.7,0.1-1c0.1-0.5-0.2-0.4-0.9,0.3c-0.7,0.7-1.2,1-1.2,0.7C-253.3,392.1-253.3,392-253.3,391.8z"/>
</g>
</svg>
