<?xml version="1.0" encoding="utf-8"?>
<!-- Generator: Adobe Illustrator 18.1.0, SVG Export Plug-In . SVG Version: 6.00 Build 0)  -->
<svg version="1.1" id="Capa_1" xmlns="http://www.w3.org/2000/svg" xmlns:xlink="http://www.w3.org/1999/xlink" x="0px" y="0px"
	 viewBox="-273 365 64 64" enable-background="new -273 365 64 64" xml:space="preserve">
<g>
	<path fill="#FFFFFF" d="M-217.9,404.2c0-7.1,0-14.2,0-21.4c0-5.5-3.6-7-8.3-7c-9.6,0-19.1,0-28.7,0c0,0-0.1,0-0.1,0
		c0,0-0.1,0-0.1,0c0,0,0,0,0,0c-6.2,0.7-6.5,5.4-6.5,10.4c0,7.5,0,15,0,22.5c0,4.6,0.2,9.9,6.3,9.9c6.5,0,13.1,0,19.6,0
		c3.7,0,11,1.4,14.5-0.8C-216.6,414.9-217.9,409-217.9,404.2z M-219.8,384.2c0,0.5,0,1,0,1.4c0,0.1,0,0.2,0,0.4c0,0.2-0.3,0.7-0.7,1
		c-0.7,0.7-1.4,1.3-2,2c-0.4,0.4-0.7,0.7-0.6,0.7c0.1,0,0.5-0.3,0.9-0.7c0.5-0.5,1.1-1.1,1.7-1.7c0.4-0.4,0.7-0.3,0.7,0.2
		c0,0.5-0.3,1.2-0.7,1.5c-0.4,0.4-0.6,0.7-0.4,0.7s0.5-0.2,0.7-0.4c0.2-0.2,0.4,0.1,0.4,0.6c0,2,0,4,0,6c0,1.4,0,2.9,0.1,4.3
		c0,0.6-0.1,1.3-0.2,1.8c-0.1,0.4-0.2,0.6,0,0.5c0.1-0.1,0.3,0.2,0.3,0.7c0,0.5,0,1.1,0,1.6c0,0.6-0.3,1.3-0.7,1.7
		c-0.5,0.5-1,1.1-1.6,1.6c-0.4,0.4-0.7,0.4-0.7-0.1c0-0.3,0-0.5,0-0.8c0-3,1.8-12.7-2-13.8c0,0-0.1,0-0.1,0c0,0-0.1,0-0.2,0
		c-0.1,0-0.1,0-0.1,0c0,0,0,0-0.1,0s-0.1,0-0.2,0c-0.1,0-0.1,0-0.2,0c-3,0.8-2.1,2.6-2.2,5.5c-0.1,1.4-0.4,2.7-0.9,3.8
		c-0.2,0.5-0.8,1.2-1.2,1.6c-0.2,0.2-0.4,0.4-0.5,0.5c-0.4,0.4-0.6,0.7-0.4,0.7c0.2,0,0,0.3-0.4,0.6c-1.9,1.7-4.4,2.8-6.9,3.1
		c-0.5,0.1-0.9,0-0.8-0.1c0.1-0.1,0.1-0.3-0.2-0.4c-0.2-0.1-0.6,0-0.8,0.2c-0.3,0.2-0.9,0.4-1.5,0.4c-0.9-0.1-1.8-0.3-2.6-0.6
		c-0.1,0-0.2-0.1-0.4-0.1c-0.2-0.1,0-0.5,0.3-0.9c0.4-0.4,0.4-0.4,0,0v0c-0.4,0.4-1,0.5-1.4,0.4c-0.4-0.2-0.3-0.7,0.1-1
		c0.5-0.4,0.9-0.8,1.4-1.3c0.4-0.4,1.2-0.5,1.7-0.4c0.7,0.2,1.5,0.3,2.2,0.4c2.5,0.1,4.8-0.8,6.5-2.3c0.4-0.4,0.4-0.3,0,0
		c-0.3,0.2-0.5,0.5-0.8,0.7c-0.4,0.3-0.9,0.6-1.1,0.7c-0.1,0.1-0.1,0.2,0.1,0.3c0.2,0.1,0.6-0.2,1-0.6c1.8-1.8,3.5-3.6,5.3-5.4
		c0.4-0.4,0.4-0.4,0,0c-0.8,0.7-1.5,1.4-2.3,2.1c-0.4,0.4-0.5,0.3-0.2-0.2c0.6-1,1-2,1.2-3.1c0-0.2,0.1-0.4,0.1-0.6
		c0-0.3,0.4-0.9,0.8-1.3c1.1-1,2.1-2,3.1-2.9c0.4-0.4,0.7-0.7,0.6-0.8c0,0-0.4,0.2-0.8,0.6c-1,1-2,1.9-2.9,2.9c-0.4,0.4-0.4,0.4,0,0
		c1-1,2-2,2.9-2.9c0.4-0.4,0.7-0.7,0.7-0.7c0,0-0.3,0.3-0.7,0.7c-1,0.9-1.9,1.9-2.9,2.8c-0.4,0.4-0.7,0.2-0.8-0.3
		c0-0.3-0.1-0.5-0.2-0.7c-0.2-0.5,0-1.2,0.4-1.6c0.6-0.5,1.2-1.1,1.7-1.6c0.4-0.4,0.5-0.8,0.1-1c-0.3-0.2-0.9,0-1.3,0.4
		c-0.4,0.4-0.8,0.7-1.2,1.1c-0.4,0.4-0.9,0.4-1.2,0.1s-0.1-0.8,0.3-1.2c0.1-0.1,0.3-0.3,0.4-0.4c0.4-0.4,1.2-0.6,1.7-0.6
		c1.4,0.1,2.9-0.1,3.7-0.1c2.2,0,2.9-1.2,3.2-2.8c0.1-0.5,0.1-1,0.1-1c0,0,0,0,0,0l1.6-1.4c0.2-0.2,0.4-0.4,0.6-0.6
		C-220,383.5-219.8,383.6-219.8,384.2z M-220.5,387.2c-0.6,0.6-1.1,1.1-1.7,1.6c-0.4,0.4-0.4,0.4,0,0
		C-221.6,388.2-221,387.7-220.5,387.2C-220.1,386.8-220.1,386.8-220.5,387.2z M-224.9,412.8c-1.3,0-2.5,0-3.8,0
		c-5.2,0-10.4,0-15.6,0c-1.5,0-10.8,1.2-10.8-1.5c0-4.4,0-8.8,0-13.2c0-0.7,0-1.4,0-2.1c0-2,1.4,3,1.4,3.1c0.2,3.4,2.3,6.4,4.7,8.5
		c4,3.5,9.8,3.6,14.6,1.9c2.6-0.9,4.6-2.8,6.2-4.9c0.8-1,1.3-2.3,1.7-3.4c0.2-0.5,0.5-3.5,0.7-5.3c0.1-0.5,0.5-0.7,0.7-0.2
		c1.5,3,0.3,10.2,0.3,12.2C-224.5,408.1-224.3,412.8-224.9,412.8z M-245.1,404.2c0.3,0.2,0.3,0.7-0.1,1c-0.4,0.4-0.8,0.7-1.2,1.1
		c-0.4,0.4-1,0.5-1.2,0.2c-0.3-0.2-0.2-0.8,0.2-1.2c0.3-0.3,0.6-0.6,1-0.9C-246.1,404.1-245.5,404-245.1,404.2z M-241.1,389.6
		c0.5-0.1,1.4-0.1,2,0c8.3,1.4,9.4,14.7-0.2,15.2C-248.4,405.2-249.9,391.1-241.1,389.6z M-224.6,387.9c-0.1,1.3-2.2,0.8-3,0.8
		c-1.1,0-2.3,0.3-3.2-0.6c-0.6-0.6-0.3-2.2-0.3-3c0-0.5-0.2-2.1,0.1-3c0.2-0.5,1.1-0.7,1.6-0.8c1.6-0.1,3.6-0.3,4.5,0.6
		c0.6,0.6,0.3,2.2,0.3,3C-224.6,386-224.5,386.9-224.6,387.9z M-259.1,380c0.6-1.4,1.4-2.5,2.6-3c0.5-0.2,1-0.3,1.1-0.3
		c0.1,0-0.2,0.3-0.6,0.7c-0.9,0.9-1.8,1.8-2.7,2.8C-259.1,380.7-259.3,380.6-259.1,380z M-260,391c0-0.1,0-0.3,0-0.4
		c0-0.6,0.3-1.3,0.7-1.7c1.9-1.8,3.7-3.6,5.5-5.2c0.4-0.4,0.7-0.7,0.7-0.7c0,0-0.3,0.3-0.7,0.7c-1.7,1.7-3.5,3.4-5.5,5.2
		c-0.4,0.4-0.7,0.5-0.7,0.3c0-0.1,0-0.3,0-0.4c0-1.3,0-2.5,0.1-3.7c0-0.6,0.4-1.3,0.8-1.7c1.5-1.6,3-3.1,4.5-4.6
		c0.4-0.4,0.4-0.4,0,0c-0.3,0.4-0.7,0.7-1,1.1c-0.4,0.4-0.4,0.4,0,0c0.7-0.7,1.4-1.4,2.1-2.2c0.4-0.4,1.1-0.7,1.7-0.7
		c0.6,0,1.2,0,1.8,0c0.6,0,0.9,0.1,0.9,0.1c-0.1,0.1,0,0.1,0.2,0c0.2,0,0.3-0.1,0.3-0.1c0,0,0.5,0,1,0c2.7,0,5.4,0,8.1,0
		c3.6,0,7.2,0,10.7,0c2.6,0,5.1-0.3,7.2,1.2c0.4,0.3,1.1,1,1.3,1.5c0.2,0.3,0.3,0.7,0.4,1.1c0.1,0.5-0.2,1.3-0.6,1.7
		c-0.4,0.4-0.9,0.8-1.3,1.2c-0.4,0.4-0.7,0.3-0.8-0.1c0-0.3,0-0.5,0-0.7c0,0,0-0.1,0-0.1c0-0.1,0.2-0.4,0.5-0.6
		c0.3-0.3,0.3-0.5,0-0.5c-0.3,0-0.6,0.1-0.7,0.1c-0.1,0.1-0.4-0.3-0.8-0.6c-1.6-1-4.8-0.5-6.3-0.5c0,0-0.1,0-0.1,0c0,0-0.1,0-0.1,0
		c0,0,0,0,0,0c-3.8,0.4-3,4.3-3,7.1c0,0.7,0.3,1.2,0.8,1.6c0.4,0.3,0.7,0.6,0.4,0.9c-0.2,0.1-0.3,0.3-0.5,0.5
		c-0.1,0.1-0.2,0.2-0.3,0.3c-0.2,0.2-0.5,0.1-0.8-0.2c-0.3-0.2-0.4-0.6-0.2-0.7c0.2-0.2,0.3-0.3,0.2-0.3c-0.1,0-0.3,0.1-0.4,0.3
		c-0.2,0.2-0.6,0-1.1-0.2c-0.9-0.5-1.9-0.8-2.9-1c-0.5-0.1-1.1-0.2-1.2-0.2s-0.2,0-0.3,0s-0.6,0-1.1,0.1c-4.2,0.6-7.7,3.3-8.5,7.8
		c-0.3,1.5,0,2.9,0.5,4.1c0.2,0.5,0.4,1,0.2,1.1c-0.1,0.1-0.2,0.5-0.2,0.9c0,0.4,0.1,0.6,0.2,0.5c0.1-0.1,0.2-0.2,0.2-0.2
		c0.1-0.1,0.2-0.2,0.3-0.3c0.2-0.2,0.6,0.1,1,0.4c0.1,0.1,0.2,0.2,0.3,0.2c0.4,0.4,0.5,1,0.1,1.3c-0.3,0.3-0.6,0.6-0.9,0.9
		c-0.4,0.4-1,0.4-1.4,0c-2.1-2.6-3.1-6.2-2.8-9.7c0.1-0.7-0.2-1.3-0.7-1.7c-0.4-0.4-0.9-0.5-0.9-0.6c0-0.1-0.1-0.1-0.1,0
		c-0.1,0.1-0.3,0.1-0.5,0.2c-0.1,0-0.2,0-0.4,0.1c-1.5,0.4-2.3,1.4-2.6,2.6c-0.2,0.5-0.5,1.3-0.9,1.7c-0.4,0.4-0.8,0.8-1.2,1.2
		c-0.4,0.4-0.7,0.5-0.7,0.3c0-0.2,0-0.3,0-0.4c0-0.1,0-0.5,0-1c0-0.5,0.3-1.3,0.6-1.7c1.7-1.7,3.4-3.5,5.1-5.2
		c0.4-0.4,0.7-1,0.7-1.4s-0.3-0.4-0.7,0c-1.5,1.4-3.2,3.1-5.1,5c-0.4,0.4-0.7,0.3-0.8-0.3s0.3-1.3,0.7-1.7c1.7-1.7,3.4-3.4,5.2-5.1
		c0.4-0.4,0.7-1.1,0.7-1.5c0-0.4-0.3-0.5-0.7-0.1c-1.8,1.8-3.6,3.5-5.3,5.3C-259.7,391.7-260,391.5-260,391z M-257.8,405.8
		c-0.4,0.4-0.8,0.8-1.2,1.2c-0.4,0.4-0.7,0.3-0.7-0.2c0-0.5,0.3-1.2,0.7-1.6c0.4-0.5,0.9-0.9,1.3-1.4c0.4-0.4,0.7-0.3,0.6,0.2
		C-257.1,404.6-257.5,405.4-257.8,405.8z M-257.3,407.1c0,0.4-0.3,1-0.7,1.4c-0.4,0.4-0.7,0.7-1.1,1.1c-0.4,0.4-0.7,0.4-0.7,0
		s0.4-1.1,0.8-1.5c0.5-0.5,1-1,1.5-1.5c0.1-0.1,0.1-0.1,0.2-0.2C-257.3,406.4-257.3,406.7-257.3,407.1z M-259.7,402.4
		c0-0.6,0-1.2,0-1.8c0-0.1,0-0.2,0-0.3c0-0.2,0.4-0.6,0.8-1c0.4-0.3,0.7-0.7,1.1-1c0.4-0.4,0.7-0.2,0.7,0.3c0,0.4,0,0.8,0,1.2
		c0,0.6-0.3,1.3-0.7,1.7c-0.4,0.4-0.8,0.8-1.2,1.2C-259.4,403.1-259.7,403-259.7,402.4z M-259.9,412.3c0-0.3,0-0.6,0-0.8
		c0-0.6,0.4-1.3,0.7-1.7c0.4-0.4,0.7-0.7,1.1-1.1c0.4-0.4,0.7-0.3,0.7,0.3c0,0.2,0,0.4,0,0.7c0,0.6-0.2,1.3-0.6,1.7
		c-0.4,0.4-0.8,0.8-1.1,1.2C-259.4,413-259.8,412.8-259.9,412.3z M-258.1,415.9c-0.4-0.3-0.7-0.7-1-1.1c-0.3-0.5-0.1-1.2,0.3-1.6
		c0.4-0.3,0.7-0.7,1.1-1c0.4-0.4,0.8-0.2,1.1,0.3c0.4,0.8,1.1,1.4,2.1,1.4c0,0,0,0,0,0c0,0-0.3,0.3-0.7,0.7
		c-0.4,0.4-0.9,0.8-1.3,1.2C-257,416.1-257.7,416.2-258.1,415.9z M-219.6,409.1c0,0.6-0.4,1.3-0.8,1.7c-0.8,0.8-1.6,1.5-2.4,2.3
		c-0.4,0.4-0.4,0.7,0,0.7c0.4,0,1-0.3,1.4-0.7c0.3-0.3,0.6-0.6,0.9-0.9c0.4-0.4,0.7-0.3,0.6,0.2c0,0.5-0.2,1-0.4,1.2
		c-0.2,0.2-0.2,0.3,0,0.3c0.1,0,0.3,0.1,0.3,0.2c0,0.1,0,0.1,0,0.2c-0.7,5.8-16.7,3.5-19.9,3.5c-3,0-8.5,0.8-13,0.2
		c-0.5-0.1-0.7-0.5-0.3-0.9c0,0,0.1-0.1,0.1-0.1c0.4-0.4,0.6-0.8,0.5-1c-0.1-0.1-0.5,0-0.9,0.4c-0.2,0.2-0.4,0.3-0.6,0.5
		c-0.4,0.4-1.1,0.6-1.5,0.4c-0.4-0.1-0.5-0.6,0-1c0.5-0.5,1.1-1,1.6-1.5c0.4-0.4,0.7-0.7,0.7-0.8c0-0.1,0.4-0.2,1-0.2
		c8.8,0,17.6,0,26.4,0c2.4,0,3.1-1.5,3.2-3.2c0-0.5,0.1-1.1,0.2-1.2l0.2-0.2c0.6-0.6,1.3-1.3,1.9-1.9c0.4-0.4,0.7-0.3,0.7,0.3
		C-219.6,408.1-219.6,408.6-219.6,409.1z"/>
	<path fill="#FFFFFF" d="M-253.7,381.3c-0.8,0.8-1.6,1.7-2.5,2.5c-0.1,0.1-0.1,0.1-0.2,0.2c-0.1,0.1,0.1-0.1,0.5-0.5
		c0.7-0.7,1.4-1.3,2.1-2c0.4-0.4,0.7-0.8,0.8-0.8C-253,380.7-253.3,380.9-253.7,381.3z"/>
	<path fill="#FFFFFF" d="M-259,394.4c-1.1,1.2,2-1.9,5-4.8c0.4-0.4,0.4-0.4,0,0C-255.5,391.1-257.2,392.7-259,394.4z"/>
</g>
</svg>
