<?xml version="1.0" encoding="utf-8"?>
<!-- Generator: Adobe Illustrator 18.1.0, SVG Export Plug-In . SVG Version: 6.00 Build 0)  -->
<svg version="1.1" id="Capa_1" xmlns="http://www.w3.org/2000/svg" xmlns:xlink="http://www.w3.org/1999/xlink" x="0px" y="0px"
	 viewBox="-277 226 344 342" enable-background="new -277 226 344 342" xml:space="preserve">
<g>
	<defs>
		<circle id="SVGID_1_" cx="-104.5" cy="397.5" r="171.5"/>
	</defs>
	<use xlink:href="#SVGID_1_"  overflow="visible" fill="#D7516B"/>
	<clipPath id="SVGID_2_">
		<use xlink:href="#SVGID_1_"  overflow="visible"/>
	</clipPath>
</g>
<g>
	<path fill="#FFFFFF" d="M11.1,439.4c-5.4-0.9-10.9-1.1-16.4-1c2.9-19.2,2.5-38.2,1.7-57.6c-1-21.9,3.2-43.1-1.8-64.8
		c-0.3-1.1-1.2-1.6-2.2-1.7c-62.9-6.5-126-3.5-189-0.9c-1.4,0.1-2.2,1-2.3,2.3c-5.3,40.8-3.5,81.9-2.1,122.9
		c-6.3-0.2-12.6-0.5-18.9-1.2c-1.1-0.1-1.5,1.1-1.2,1.9c-0.8,0.2-1.3,1-0.8,1.9c3.4,6.2,6.8,12.2,9.7,18.6c0.3,0.7,1.2,1.1,1.9,1.1
		c48.7-1.7,97.3-2,146-2.6c23.1-0.3,64.4,11.5,76.2-14.9c0-0.1,0-0.2,0.1-0.2C13.1,442.2,13.3,439.7,11.1,439.4z M-197.2,344.2
		c1.1-23.9,7.7-26.4,30.5-27.4c20-0.8,40.1-1.5,60.1-1.8c16.6-0.3,33.2-0.1,49.8,0.4c21.4,0.6,48.8-3.9,49.7,25
		c1.1,31.4,2,66.9-2.9,97.8c0,0.1,0,0.2,0,0.3c-6.2,0.3-12.4,1-18.5,1.3c-21.6,1.4-43.6-2.1-65.1-3.3c-34.6-2-69.4,2.7-103.9,2.1
		C-196.8,407.2-198.6,375.7-197.2,344.2z M-38.7,453.5c-21.1-0.3-42.2,0.3-63.2,0.5c-19.8,0.1-39.6,0.5-59.4,1
		c-9.9,0.2-19.8,0.6-29.6,0.9c-15.7,0.5-20.6-3.4-28.6-15.5c34.5,7,71.9,0.7,106.8,0.4c22.8-0.2,45.4,2.4,68.2,3.6
		c16.9,0.9,34.3-3.2,51.1-1.2C-2.3,458.7-23.4,453.7-38.7,453.5z"/>
	<path fill="#FFFFFF" d="M-19.6,335.2c-0.2-1.3-1.6-1.7-2.7-1.3c-53.3-2.9-106.1,4.6-159.7-0.7c-1.8-0.2-2.2,2.8-0.4,3.2
		c0.1,0,0.1,0,0.2,0c-0.8,0-1.5,0.4-1.7,1.4c-5.1,26.5-4.6,59.2-0.7,86.3c-0.6,0.6-0.5,1.5,0.3,1.9c0.1,0.3,0.1,0.7,0.1,1.1
		c0.2,1.3,2.4,1.3,2.6,0c0-0.2,0-0.5,0.1-0.7c52,2.6,104.5,4.1,156.4,0.9c1-0.1,1.6-0.6,1.9-1.3c1-0.1,1.9-0.8,1.8-1.9
		C-24.5,394.6-14.3,364.2-19.6,335.2z M-23.5,343.2c-0.4-0.3-0.8-0.6-1.2-1c-1.5-1.4-3-2.8-4.5-4.2c1.9-0.1,3.8-0.3,5.7-0.4
		C-23.5,339.5-23.5,341.3-23.5,343.2z M-74.1,340.9c0,0.1,0,0.2,0.1,0.3c5.8,8.2,13.8,15.4,21,22.4c7.8,7.6,16.7,17,26.6,22.2
		c-0.2,2.7-0.4,5.3-0.5,8c-4.9-8.8-16.3-15.4-24-21c-13.2-9.6-24.8-19.1-35.5-31.2C-82.3,341.4-78.2,341.1-74.1,340.9z M-88.1,341.6
		c4,10.8,16.7,19.1,25.3,25.7c12.3,9.5,25.3,17.8,35.4,29.7c0.1,0.1,0.3,0.2,0.4,0.2c-0.1,4-0.1,8,0.1,12
		c-11.8-13.9-25.8-27.6-39.9-38.8c-11.4-9-25.2-17-34.4-28.4C-96.9,342-92.5,341.8-88.1,341.6z M-181.1,423.6
		c0.4-3.3,0.7-6.6,0.9-10c3.5,3,6.3,6.6,9.7,9.7C-174.1,423.5-177.6,423.5-181.1,423.6z M-167.3,423.3c-4.2-3.9-7.9-8.9-12.8-12
		c0.1-1.5,0.1-3,0.2-4.6c2.6,3.1,5.4,6.1,8.3,9c2.5,2.5,5.7,5.8,9.1,7.5C-164.1,423.3-165.7,423.3-167.3,423.3z M-159.4,423.2
		c0-0.2-0.1-0.4-0.3-0.6c-3.4-2.9-7.3-5.2-10.6-8.2c-3.4-3.1-6.4-6.5-9.6-9.8c0.1-2.2,0-4.5,0.1-6.7c7.5,9.8,18,18.9,28.4,25.4
		C-154,423.2-156.7,423.2-159.4,423.2z M-147.9,423.2c-5.2-4.9-11.4-8.9-17-13.4c-5.5-4.4-10.3-9.2-14.8-14.6c0-3.1,0-6.3-0.1-9.4
		c5.9,7,12.2,13.8,18.6,20.4c5.7,5.9,11.8,12.3,18.7,16.9C-144.3,423.2-146.1,423.2-147.9,423.2z M-139,423.2
		c-13.7-13.1-27.6-25.7-40.9-39.3c0-3.1-0.1-6.2-0.2-9.3c8.6,8.1,16.3,17.1,24.1,26c6.9,7.9,14.1,16.8,23.1,22.6
		C-134.9,423.3-136.9,423.3-139,423.2z M-129.7,423.3c0-0.3,0-0.6-0.3-0.8c-17.7-15.5-32-34.7-50.1-49.7c-0.1-3.2-0.1-6.4-0.1-9.5
		c22.4,18.2,38.1,44.4,62.1,60.2C-121.9,423.4-125.8,423.4-129.7,423.3z M-114.4,423.5c0,0,0-0.1-0.1-0.1
		c-23.7-18.8-40.9-44.8-65.8-62c0-3.9-0.1-7.7-0.1-11.5c23.4,25.8,48,51.2,74.6,73.8C-108.6,423.6-111.5,423.6-114.4,423.5z
		 M-101.9,423.7c-27-24.4-51.6-51.3-78.3-76c0-3.2,0.1-6.3,0.2-9.4c0-0.8-0.4-1.4-1-1.7c0.3,0.1,0.7,0.1,1,0.2
		c16,18.7,34.4,35.8,52,52.9c10.2,9.9,20.6,19.7,31.3,29.2c1.1,1,3.2,3.2,5.3,4.9C-94.9,423.8-98.4,423.8-101.9,423.7z M-86.8,423.9
		c-4.6-1.6-10.5-9.2-13.8-12.3c-10.4-9.7-20.6-19.7-30.9-29.5c-15.5-14.9-31.4-29.5-46.5-44.9c3.2,0.6,6.3,1.1,9.5,1.6
		c-0.2,0.2-0.3,0.5,0,0.8c21.3,18.6,41.2,38.5,60.8,58.9c7.4,7.7,16.1,20.7,26.7,25.5C-82.9,423.9-84.9,423.9-86.8,423.9z
		 M-75,423.9c-0.1-0.4-0.3-0.8-0.8-1c-15-5.8-27.5-24.7-38.5-36c-16.7-17.1-34.2-33.5-53.3-48c3.9,0.6,7.9,0.9,11.8,1.4
		c21,16.4,41.3,33.3,60.3,52c9.9,9.8,19.6,22.7,31,31.6C-68,423.9-71.5,423.9-75,423.9z M-59.7,423.8c-5.1-9.2-34.7-34.8-38.4-38.4
		c-16.8-16.5-35.2-31.4-54.5-44.8c5.6,0.5,11.2,0.9,16.9,1.2c12.7,18.4,29.3,33.3,46,47.9c12,10.5,23.8,24.5,37.2,33.9
		C-55,423.7-57.4,423.8-59.7,423.8z M-47.6,423.6c-27.9-28-62.2-50-86.3-81.7c3.6,0.2,7.2,0.2,10.8,0.3
		c24.2,28.6,51.4,60.9,83.3,81.2C-42.5,423.4-45,423.5-47.6,423.6z M-35.3,423.2c-30.6-25.1-57.9-52.7-85.6-80.9c3.1,0,6.2,0,9.3,0
		c14.7,16.4,30.7,31.6,46.3,47.2C-54.6,400-44.2,414-31.7,423C-32.9,423.1-34.1,423.1-35.3,423.2z M-27.4,422.8
		c-27.7-26.4-55-53.3-81.9-80.5c2.2,0,4.4-0.1,6.7-0.2c-0.5,8.5,22.9,22,28.4,26.2c17.4,13.5,31.8,30.2,47.6,45.4c0.3,3,0.6,6,1.2,9
		C-26.1,422.8-26.8,422.8-27.4,422.8z M-26.2,383c-7.6-6.4-15.6-12.3-22.9-19.1c-8-7.4-15.2-16.1-23.6-23.1
		c3.8-0.2,7.5-0.5,11.3-0.7c10.2,12.4,25.3,20.4,33.9,34.2c0.6,1,2,0.3,1.9-0.8c-1-6.4-9-11.9-13.5-15.8
		c-6.8-5.9-13.9-11.4-20.3-17.7c2.9-0.2,5.8-0.4,8.7-0.6c4.5,4.2,8.9,8.4,13.2,12.6c4.3,4.2,8.2,9.1,12.8,12.9c0.1,0,0.1,0,0.2,0.1
		C-25.2,371.1-25.8,377-26.2,383z M-24.4,362.2c-2.9-3.9-7-7.2-10.5-10.4c-4.5-4.2-9.2-8.3-13.8-12.4c2.3-0.1,4.6-0.3,6.9-0.5
		c3.8,2.8,7.1,6.2,10.4,9.6c2.2,2.3,4.6,5.1,7.4,6.9C-24.2,357.6-24.3,359.9-24.4,362.2z M-30.9,346.2c-2.7-2.6-5.5-5.1-8.5-7.4
		c2.7-0.2,5.3-0.4,8-0.5c1.7,1.8,3.5,3.7,5.3,5.5c0.8,0.8,1.7,1.7,2.6,2.6c-0.1,2-0.1,4.1-0.2,6.1
		C-26.2,350.3-28.7,348.3-30.9,346.2z"/>
</g>
</svg>
