<?xml version="1.0" encoding="utf-8"?>
<!-- Generator: Adobe Illustrator 18.1.0, SVG Export Plug-In . SVG Version: 6.00 Build 0)  -->
<svg version="1.1" id="Layer_1" xmlns="http://www.w3.org/2000/svg" xmlns:xlink="http://www.w3.org/1999/xlink" x="0px" y="0px"
	 viewBox="48.1 426 543.8 214" enable-background="new 48.1 426 543.8 214" xml:space="preserve">
<line fill="none" stroke="#58595B" stroke-width="0.5" stroke-miterlimit="10" x1="49.2" y1="613.5" x2="128" y2="613.5"/>
<line fill="none" stroke="#58595B" stroke-width="0.5" stroke-miterlimit="10" x1="486.1" y1="613.5" x2="591.9" y2="613.5"/>
<g enable-background="new    ">
	<path d="M197.6,457.5c3.1,0,4.7,2.1,4.7,6.3h1.6l-22.5,88.4l-1.6,6.3c2.1,6.3,6.3,9.4,12.5,9.4h1.6c3.5,0,7.1-1.6,10.9-4.7h4.7v3.1
		h1.6c-2.5,7.3-7.7,10.9-15.6,10.9h-3.1c-14.6,0-21.9-5.7-21.9-17.2l22.5-85.3v-6.3h-3.1C164,492.8,145,526.9,133,570.9l-6.3,3.1
		l-4.7-4.7h-1.6c17.1-38.2,25.6-68.7,25.6-91.5h-3.1C121,499,102.6,535.3,87.6,586.5l-4.7,1.6l-3.1-6.3L96,523.1l3.1-17.2h-1.6
		c-13.1,7.3-23.5,10.9-31.3,10.9c-9.4-3.6-14.1-8.8-14.1-15.6l1.6-4.7h3.1c3.9,7.3,8.6,10.9,14.1,10.9c12.5,0,24-10.4,34.4-31.3
		l6.3-4.7l6.3,4.7v6.3c-4.2,5.6-6.3,10.2-6.3,14.1v1.6h1.6c20-24,32-36,36-36h3.1l4.7,6.3l-3.1,25h4.7
		C174.8,469.5,187.8,457.5,197.6,457.5z"/>
	<path d="M245.6,492.6c2.8,0,5.4,2.6,7.8,7.8c-4.2,21.2-10.4,36.8-18.8,46.9c-1.8,0-2.8,2.6-3.1,7.8c1.4,4.3,4.1,7.4,7.8,9.4h4.7
		c17.5,0,31-12.5,40.6-37.5h1.6c5.2,0,8.3,2.1,9.4,6.3c-15.7,28.1-35,42.1-57.8,42.1c-11.4-6.2-18.4-10.6-20.8-13.3l-2.6-16.3
		C214.3,514,224.7,496.3,245.6,492.6z M226.8,530.1v7.8h4.7c5.2-8.5,7.8-17.3,7.8-26.6h-1.6C234.2,511.3,230.6,517.6,226.8,530.1z"
		/>
	<path d="M312.7,441.8c4.2,0,7.8,5.4,10.9,16.3c0,18.5-8.9,40.8-26.6,66.7l-6.3,17.7c0,8.9,8.9,13.4,26.6,13.4h1.6
		c3.8-3,7.5-4.4,10.9-4.4l4.7,4.4c-6.3,9.9-16.2,14.8-29.7,14.8c-8.9-3.9-16.7-9.4-23.4-16.3l-1.6-13.4l-1.6-17.7
		c3.8-31.9,13.7-58.6,29.7-80.1L312.7,441.8z M308,458.1c-12.3,24.8-19,46-20.3,63.7h1.6c16.7-22.4,25-43.1,25-62.2l-1.6-1.5
		L308,458.1L308,458.1z"/>
	<path d="M338.9,513.4l4.7,4.7v7.8c-6.3,10.4-9.4,19.3-9.4,26.6l4.7,4.7h7.8l18.8-18.8h3.1c0,5.2,1,7.8,3.1,7.8
		c-14.5,18.8-26.5,28.1-36,28.1c-5,0-9.7-4.2-14.1-12.5c5.2-17.3,8.3-32.9,9.4-46.9l1.6-1.6h6.3V513.4z M359.2,466.5h3.1l4.7,4.7
		v4.7l-4.7,4.7c-4.7-2-7.4-4.1-7.8-6.3v-3.1L359.2,466.5z"/>
	<path d="M408.2,496.2h4.7l4.7,4.7c-1.8,3.6-3.9,20.8-6.3,51.6h3.1c1.7,0,5.6,0.3,11.9,0.9c8.7-8.9,13.1-9.7,13.1-2.4
		c0,7.1-8.9,11.2-26.6,12.5c-8.9,8.3-17,10.8-24.3,7.3c-4.2,3.5-11.9-2.3-23.1-17.4l-5.7-0.9l-1.6-6.3l4.7-6.3h3.1l4.7,3.1h4.7
		C397.3,523.5,408.2,507.9,408.2,496.2z M380.1,554.1l10.9,7.8h3.1c7.3-3.8,10.9-14.8,10.9-32.8V526h-1.6
		C387.9,540.5,380.1,549.9,380.1,554.1z"/>
	<path d="M482.5,496.2h4.7l4.7,4.7c-1.8,3.6-3.9,20.8-6.3,51.6h3.1c1.7,0,5.6,0.3,11.9,0.9c8.7-8.9,13.1-9.7,13.1-2.4
		c0,7.1-8.9,11.2-26.6,12.5c-8.9,8.3-17,10.8-24.3,7.3c-4.2,3.5-11.9-2.3-23.1-17.4l-5.7-0.9l-1.6-6.3l4.7-6.3h3.1l4.7,3.1h4.7
		C471.6,523.5,482.5,507.9,482.5,496.2z M454.4,554.1l10.9,7.8h3.1c7.3-3.8,10.9-14.8,10.9-32.8V526h-1.6
		C462.2,540.5,454.4,549.9,454.4,554.1z"/>
	<path d="M540.5,509.8h3.1c5.5,1.6,10.2,8.3,14.1,20.3l-1.6,17.2c1.4,7.3,3.5,10.9,6.3,10.9l20.3-3.1l1.6,7.8
		c0,3.1-7.3,5.2-21.9,6.3c-9.4-3.5-14.1-8.2-14.1-14.1h-4.7c-9.7,9.4-17,14.6-21.9,15.6c-8.3-1.9-12.5-9.7-12.5-23.4v-3.1
		C515.2,521.2,525.6,509.8,540.5,509.8z M518.7,545.7v7.8c0,3.1,2.1,4.7,6.3,4.7c12.5-7.2,18.8-19.2,18.8-36l-4.7-1.6
		C525.4,526,518.7,534.3,518.7,545.7z"/>
</g>
<g enable-background="new    ">
	<path d="M166.2,600.9c5.4,0,8.4,2.7,8.4,2.7l-0.9,1.1c0,0-2.9-2.4-7.5-2.4c-6.1,0-10.5,4.8-10.5,11.1s4.3,11.1,10.3,11.1
		c5.2,0,8.3-4,8.3-4v-4.6H170v-1.4h5.8v11h-1.5v-2.1c0-0.5,0-1,0-1h-0.1c0,0-2.9,3.5-8.2,3.5c-6.7,0-11.8-5.5-11.8-12.5
		C154.1,606.4,159.3,600.9,166.2,600.9z"/>
	<path d="M181.8,601.3h7.1c2.2,0,3.4,0.2,4.3,0.7c2,1,3.3,3,3.3,5.8c0,3.4-2,6-4.8,6.6v0.1c0,0,0.2,0.3,0.6,0.9l5.4,10H196
		l-5.7-10.7h-6.9v10.7h-1.5v-24.1H181.8z M189.9,613.4c3.2,0,5.2-2.3,5.2-5.5c0-2.1-1.1-3.9-2.8-4.6c-0.7-0.3-1.4-0.5-3.4-0.5h-5.5
		v10.7h6.5V613.4z"/>
	<path d="M215,617.1h-10.2l-3.1,8.3h-1.6l9-24.1h1.6l9,24.1h-1.6L215,617.1z M209.9,603c0,0-0.5,1.9-0.9,2.9l-3.7,9.8h9.2l-3.7-9.8
		C210.5,604.9,210,603,209.9,603L209.9,603z"/>
	<path d="M224.1,601.3h7.9c4.2,0,7.3,2.7,7.3,7c0,4.4-3.1,7.1-7.3,7.1h-6.4v10h-1.5V601.3z M231.9,614.1c3.5,0,5.9-2.1,5.9-5.7
		s-2.3-5.6-5.9-5.6h-6.4v11.4h6.4V614.1z"/>
	<path d="M244.5,601.3h1.5v11.3h15.3v-11.3h1.5v24.1h-1.5V614H246v11.4h-1.5V601.3z"/>
	<path d="M270.2,601.3h1.5v24.1h-1.5V601.3z"/>
	<path d="M289.4,600.9c5.7,0,8.6,3,8.6,3l-0.9,1.1c0,0-2.9-2.7-7.7-2.7c-5.9,0-10.4,4.6-10.4,10.9c0,6.3,4.5,11.2,10.5,11.2
		c5.2,0,8.2-3.3,8.2-3.3l0.9,1c0,0-3.2,3.7-9.1,3.7c-7,0-12.1-5.6-12.1-12.6S282.6,600.9,289.4,600.9z"/>
	<path d="M313.9,601.3h7.6c7.2,0,12,4.4,12,12.1c0,7.7-4.9,12.1-12,12.1h-7.6V601.3z M321.2,624.1c6.4,0,10.7-3.8,10.7-10.7
		s-4.3-10.7-10.7-10.7h-5.9v21.4H321.2z"/>
	<path d="M339.4,601.3h13.2v1.4h-11.7v9.9h9.6v1.4h-9.6v10.1h12.4v1.4h-13.8v-24.2H339.4z"/>
	<path d="M358.3,621.7c0,0,2.4,2.7,6.4,2.7c3,0,5.4-1.9,5.4-4.8c0-6.9-12.3-5-12.3-12.5c0-3.2,2.9-6.2,7.2-6.2
		c3.9,0,6.1,2.2,6.1,2.2l-0.8,1.3c0,0-2.1-2.1-5.3-2.1c-3.6,0-5.7,2.4-5.7,4.8c0,6.4,12.3,4.4,12.3,12.5c0,3.5-2.7,6.3-7,6.3
		c-4.8,0-7.4-3-7.4-3L358.3,621.7z"/>
	<path d="M377.4,601.3h1.5v24.1h-1.5V601.3z"/>
	<path d="M396.7,600.9c5.4,0,8.4,2.7,8.4,2.7l-0.9,1.1c0,0-2.9-2.4-7.5-2.4c-6.1,0-10.5,4.8-10.5,11.1s4.3,11.1,10.3,11.1
		c5.2,0,8.3-4,8.3-4v-4.6h-4.3v-1.4h5.8v11h-1.5v-2.1c0-0.5,0-1,0-1h-0.1c0,0-2.9,3.5-8.2,3.5c-6.7,0-11.8-5.5-11.8-12.5
		C384.7,606.4,389.9,600.9,396.7,600.9z"/>
	<path d="M412.3,601.3h1.4l13.7,18.9c0.8,1.1,2,3,2,3h0.1c0,0-0.2-1.8-0.2-3v-18.9h1.5v24.1h-1.4l-13.7-18.9c-0.8-1.1-2-3-2-3h-0.1
		c0,0,0.2,1.8,0.2,3v18.9h-1.5V601.3z"/>
	<path d="M438.2,601.3h13.2v1.4h-11.7v9.9h9.6v1.4h-9.6v10.1h12.4v1.4h-13.8v-24.2H438.2z"/>
	<path d="M457.9,601.3h7.1c2.2,0,3.4,0.2,4.3,0.7c2,1,3.3,3,3.3,5.8c0,3.4-2,6-4.8,6.6v0.1c0,0,0.2,0.3,0.6,0.9l5.4,10H472
		l-5.7-10.7h-6.9v10.7h-1.5V601.3z M465.9,613.4c3.2,0,5.2-2.3,5.2-5.5c0-2.1-1.1-3.9-2.8-4.6c-0.7-0.3-1.4-0.5-3.4-0.5h-5.5v10.7
		h6.5V613.4z"/>
</g>
</svg>
