<?xml version="1.0" encoding="utf-8"?>
<!-- Generator: Adobe Illustrator 19.0.1, SVG Export Plug-In . SVG Version: 6.00 Build 0)  -->
<svg version="1.1" id="Layer_1" xmlns="http://www.w3.org/2000/svg" xmlns:xlink="http://www.w3.org/1999/xlink" x="0px" y="0px"
	 viewBox="0 0 632 100" style="enable-background:new 0 0 632 100;" xml:space="preserve">
<style type="text/css">
	.st0{fill:#FFFFFF;}
</style>
<g>
	<path class="st0" d="M37.3,51.4l0.8,0.4l0.4,0.5l0.3,0.5l0.1,0.6L38.7,54L38,55.1l-0.3,0.6l-0.4,1.3l-0.1,0.6l-0.2,0.6l-0.1,0.6
		v0.7l0.1,1.3l0.4,1.3l0.3,0.6l0.3,0.5l0.5,0.4l0.6,0.4l0.6,0.3l0.6,0.2l0.6,0.1h1.3l0.6-0.1l0.6-0.2l0.6-0.3l0.6-0.4l1-0.8l0.4-0.4
		l0.4-0.5l0.6-1.2l0.6-1.1l0.3-0.6l0.2-0.6l0.3-0.6l0.3-0.6l0.4-1.3l0.1-0.6l0.6-1.9l0.3-1.3l0.1-0.6l0.4-1.3l0.2-0.6l0.2-0.7
		l0.4-1.7l0.1-0.7l0.2-0.8l0.2-0.9l0.2-0.6l0.2-0.9l0.2-0.8l0.1-0.7l0.2-0.8l0.2-0.9l0.2-0.6l0.1-0.6l0.8-2.3l0.1-0.7l0.2-0.8
		l0.2-0.9l0.1-0.6l0.6-1.8l0.1-0.5l0.3-0.9l0.2-0.9l0.1-0.6l0.2-0.6l0.2-0.6l0.1-0.6l-0.3-0.1L56.2,27L55,28l-0.4,0.2l-1.5,1.3
		l-0.6,0.4l-0.5,0.3l-1.2,0.6l-1.1,0.7l-0.5,0.3l-0.6,0.4l-0.6,0.2l-0.6,0.4L47.1,33l-1.3,0.6l-0.6,0.2L44.6,34l-0.6,0.4l-0.5,0.3
		L43,35.1l-1,0.8l-0.4,0.4l-0.8,1l-0.3,0.6l-0.3,0.6l-0.1,0.6l-0.1,0.7v0.7l0.1,0.6l0.1,0.7l0.3,0.6l0.4,0.5l0.6,0.4l0.6,0.3
		l0.6,0.2l0.7,0.5l0.3,1l-0.3,1L42.7,47L42,47.2l-1.3-0.1l-1.8-0.4l-0.6-0.2l-0.6-0.4l-1-0.7L36.2,45l-0.5-0.5L35.3,44L35,43.5
		l-0.3-0.6l-0.1-0.6l-0.2-0.6l-0.1-0.6l-0.1-0.6l0.1-0.6v-0.6l0.1-1.3l0.2-0.6l0.2-0.6l0.3-0.6l0.3-0.6l0.4-0.5l0.3-0.6l0.4-0.5
		l0.4-0.4l0.5-0.4l0.6-0.4l0.6-0.4l1-0.6l0.6-0.4l0.6-0.2l0.6-0.3l1.1-0.6l0.6-0.3l0.7-0.3l0.4-0.1l0.7-0.3l0.6-0.3l0.6-0.3l0.6-0.3
		l0.8-0.4l1.5-0.6l1.2-0.5l0.6-0.3l1.1-0.6l0.6-0.3l0.6-0.4l0.5-0.4l0.4-0.4l1-0.7l0.7-0.5l0.5-0.4l0.5-0.5l0.5-0.6l0.3-0.3l0.8-1
		l0.4-0.6l0.4-0.5l0.5-0.3l0.6-0.2l0.6-0.1h1.3l0.6,0.1l0.6,0.2l0.6,0.4l0.5,0.6l0.1,0.8L64.3,22l-0.2,0.6l-0.4,1.3l-0.1,0.6
		l-0.4,1.3l-0.3,0.9l-0.9,2.7l-0.2,0.8L61.4,31l-0.2,0.7l-0.1,0.6L61,33l-0.2,0.6l-0.1,0.6l-0.4,1.3L60.1,36l-0.1,0.6l-0.1,0.6
		l-0.2,0.6l-0.1,0.6l-0.2,0.6l-0.1,0.6l-0.2,0.6l-0.1,0.6l-0.1,0.6l-0.1,0.6l-0.4,1.3L57.9,44l-0.1,0.6l-0.2,0.6l-0.1,0.6l-1.1,3.9
		l-0.2,0.8L56,51.3L55.4,53l-0.1,0.6l-0.7,2.1l-0.2,0.8l-0.2,0.6l-0.2,0.6l-0.3,0.6l-0.4,0.8l-0.4,1L52.5,61l-0.3,0.7l-0.4,0.8
		l-0.4,0.7l-0.4,0.6l-0.4,0.5L50,64.8l-0.3,0.3l-0.5,0.6l-0.4,0.4l-0.5,0.4l-1,0.7l-0.6,0.3l-0.6,0.2L45.6,68L45,68.2l-0.8,0.2
		l-1,0.2l-1.5,0.1h-1.5l-0.9-0.1l-1.1-0.1l-0.8-0.3l-0.8-0.3l-0.4-0.2l-0.6-0.3L35,67l-0.5-0.4L34,66.2l-0.5-0.4L33,65.1l-0.5-0.7
		l-0.3-0.6l-0.4-0.8l-0.2-0.8l-0.2-0.7l-0.1-0.9l-0.1-0.8V59l0.1-0.9l0.2-0.8l0.3-0.6l0.4-0.9l0.6-1l0.6-1L34,53l1.1-1.1l0.7-0.5
		l0.7-0.1L37.3,51.4z"/>
	<path class="st0" d="M100.3,34.3l-0.3,0.6L99.4,36L99,36.8l-0.5,0.8l-0.3,0.5l-0.4,0.6l-0.3,0.5l-0.4,0.6l-0.3,0.4l-0.4,0.6
		L96,41.4l-0.6,0.7l-0.6,0.6L94.5,43L94,43.6l-0.9,0.9L92.6,45l-0.8,0.8l-0.5,0.4l-0.6,0.6L90,47.4l-1,0.9l-0.6,0.4l-1.5,1l-0.5,0.2
		l-0.6,0.3l-0.8,0.6l-0.5,0.6L84.3,52l-0.1,0.8L84,54v0.4l-0.1,0.7l-0.1,0.6l-0.1,0.7V58l-0.1,0.9v1.4l0.1,0.8l0.1,0.4l0.1,0.7
		l0.3,0.6l0.3,0.6l0.4,0.5l0.6,0.4l0.6,0.2l0.7,0.1h1.2l0.6-0.1l0.6-0.2l0.8-0.4l0.8-0.4l0.6-0.4l0.7-0.6l0.6-0.6l0.8-0.8l0.6-0.5
		l0.4-0.6l0.3-0.3l0.4-0.6l0.3-0.5l0.4-0.6l0.3-0.3l0.4-0.6L97,56l0.3-0.6l0.4-0.6l0.4-0.6l0.3-0.7l0.6-0.9l0.7-0.6l0.9,0.1l0.6,0.7
		v0.7l-0.2,0.6l-0.3,0.6l-0.4,0.6l-0.3,0.6l-0.3,0.6L99.7,57l-0.4,0.6l-0.3,0.5l-0.4,0.6l-0.4,0.6l-0.1,0.3l-0.4,0.6l-0.4,0.6
		l-0.7,1l-0.5,0.6l-0.3,0.3l-0.5,0.6L95,63.8l-0.6,0.7l-0.6,0.6l-0.5,0.5l-0.4,0.3l-0.5,0.4l-0.6,0.4L91.2,67l-0.6,0.3L90,67.5
		l-0.6,0.2L88.9,68L88,68.3l-1.4,0.3l-0.8,0.1L85,68.6h-0.4l-0.7-0.1l-0.6-0.1l-0.6-0.2L82.1,68l-0.6-0.3l-0.6-0.3l-0.5-0.4L80,66.5
		L79.6,66l-0.3-0.6l-0.3-0.6l-0.2-0.6l-0.1-0.6L78.5,63l-0.1-0.6l-0.1-0.7v-0.4l-0.1-0.8l-0.1-0.6v-0.6l0.1-0.6l0.1-0.7v-0.4
		l0.1-0.9l0.2-1.5l0.1-0.8v-0.6l0.1-0.6l0.1-0.7l0.5-2.3l0.2-0.8l0.2-1.3l0.1-0.4l0.2-0.8l0.1-0.4l0.3-1.1l0.2-0.9l0.1-0.6l0.2-0.8
		l0.3-1l0.1-0.5l0.3-1l0.3-0.9l0.2-0.5l0.3-0.9l0.3-0.8l0.3-0.6l0.7-1.8l0.1-0.4l0.4-1l0.5-1.1l0.4-0.8l0.3-0.6l0.2-0.4l0.3-0.6
		l0.5-1.2l0.3-0.7l0.4-0.6l0.4-0.6l0.6-0.9l0.9-1.3l0.4-0.6l0.9-0.9l0.3-0.4l0.5-0.5l0.5-0.4l1.1-0.8l0.8-0.5l0.8-0.4l0.6-0.2
		l0.6-0.1h1.3l0.7,0.1l0.4,0.1l0.7,0.2l0.6,0.3l1,0.8l0.3,0.6l0.5,0.7l0.3,0.8l0.3,0.6l0.3,0.8l0.1,0.9V27l-0.1,1.9l-0.3,1.3
		l-0.2,0.6l-0.1,0.7l-0.6,1.7l-0.3,0.6L100.3,34.3z M88.6,36.3l-1,2.9l-0.1,0.6l-0.2,0.6L87,41.4l-0.5,1.5l-0.2,0.7L86.3,44
		l-0.2,0.7l-0.2,0.6L85.7,46l0.1,0.4l0.4-0.3l0.7-0.6l2.9-2.9l0.3-0.5l0.4-0.6L91,41l0.3-0.3l0.4-0.6l0.5-0.6l0.5-0.7l0.5-0.8
		l0.4-0.6l0.3-0.5l0.4-0.5l0.6-1.1l0.3-0.7l0.2-0.4l0.3-0.7l0.3-0.6l0.1-0.6l0.2-0.6l0.2-0.8l0.3-0.8l0.2-0.8l0.3-0.8l0.1-0.7
		l0.1-0.6v-1.3L97,25.3l-0.2-0.6l-0.5-0.4l-0.6-0.1l-0.6,0.1l-0.6,0.5L94,25.3l-0.3,0.4l-0.4,0.5L93,26.8l-0.7,1.1l-0.3,0.6
		l-0.3,0.6l-0.3,0.6l-0.3,0.6l-0.3,0.6l-0.3,0.6l-0.2,0.6L90,32.8l-0.4,1.1l-0.3,0.6L88.6,36.3z"/>
	<path class="st0" d="M115.7,52.8v0.8l-0.2,0.6l-0.6,1.1l-0.6,1.1l-0.4,0.6l-0.3,0.6l-0.4,0.6l-0.2,0.4l-0.3,0.6l-0.3,0.6l-0.4,0.5
		l-0.4,0.6l-0.3,0.5l-0.7,1.1l-1.3,1.5l-0.8,0.9l-0.5,0.5l-0.4,0.5l-0.5,0.4l-1.5,1.2l-0.5,0.4l-0.6,0.3l-0.6,0.2l-0.6,0.1l-1.3,0.3
		h-1.2l-0.8-0.1l-0.6-0.2l-0.6-0.2l-0.6-0.4l-0.5-0.4L97.3,67L97,66.4l-0.3-0.6l-0.1-0.6l-0.1-0.6L96.3,64v-0.6l0.1-1.3l0.1-0.6
		l0.2-0.6l0.3-1.3l0.2-0.6l0.1-0.6l0.2-0.6l0.2-0.6l0.6-1.9l0.1-0.6l0.1-0.6l0.2-0.6l0.1-0.6l0.1-0.6l0.4-1.3l0.2-0.8l0.2-0.9
		l0.4-1.3l0.1-0.6l0.1-0.5l0.1-0.6l0.3-0.7l0.2-0.6l0.4-1.9l0.2-0.6l0.2-0.8l0.3-0.9l0.2-0.6l0.3-0.6l0.4-0.4l0.6-0.3l0.6-0.1
		l0.7,0.1l1.3,0.1l1.1,0.4L108,40v0.6l-0.1,0.6l-0.2,0.8l-0.2,0.9l-0.4,1.3l-0.1,0.6l-0.1,0.6l-0.2,0.7l-0.2,0.8l-0.7,2.1l-0.1,0.6
		l-0.3,0.9l-0.5,1.5l-0.1,0.6l-0.1,0.6l-0.1,0.6l-0.5,1.2l-0.1,0.6l-0.5,1.8l-0.4,1.3l-0.1,0.6l-0.2,0.9l-0.2,1.1l-0.1,1.2l0.1,1
		l0.6,0.8l0.8,0.2l0.6-0.1l0.6-0.3l0.5-0.4l0.6-0.4l2.3-2.3l0.4-0.5l0.4-0.5l0.4-0.6l0.7-1.1l0.4-0.5l0.3-0.4l0.4-0.6l0.4-0.6
		l0.3-0.6l0.6-1.2l0.8-1.7l0.3-0.6l0.6-0.4l0.9,0.1L115.7,52.8z M104.4,31.4l0.3-0.6l0.6-0.5l0.6-0.4l0.7-0.2l0.6-0.1h0.7l0.6,0.1
		l0.6,0.4l0.5,0.4l0.5,0.5l0.3,0.6l0.2,0.6l0.1,0.6v0.7l-0.2,0.6l-0.4,0.6l-0.4,0.6l-0.5,0.4l-0.6,0.4l-0.6,0.3l-0.7,0.1l-0.6-0.1
		l-0.7-0.1l-1.1-0.7l-0.4-0.5l-0.4-0.6l-0.1-0.6l-0.1-0.6l0.1-0.6l0.1-0.7L104.4,31.4z"/>
	<path class="st0" d="M115.9,68.4l-0.7-0.3l-0.4-0.2l-0.6-0.3l-0.5-0.4l-0.5-0.5l-0.8-1l-0.3-0.6l-0.2-0.6l-0.1-0.6l-0.1-0.7v-0.6
		l0.1-0.6v-0.7l0.1-0.7l0.1-0.8l0.1-0.9l0.1-0.8l0.4-1.7l0.1-0.6l0.2-0.6l0.1-0.6l0.1-0.6l0.2-0.6l0.2-0.8l0.3-0.8l0.3-1.3l0.2-0.6
		l0.2-0.6l0.3-0.6L115,48l0.2-0.6l0.3-1.3l0.3-0.8l0.2-0.6l0.3-0.6l0.3-0.8l0.2-0.6l0.2-0.6l0.1-0.6l0.2-0.6l0.2-0.6l0.3-0.6
		l0.4-0.4l0.6-0.3l0.6-0.2h1.3l0.7,0.1l0.6,0.2l0.6,0.3l0.3,0.4v0.6l-0.1,0.6l-0.3,0.8l-0.4,0.8l-0.3,0.6l-0.2,0.6l-0.2,0.6
		l-0.2,0.6l-0.2,0.6l-0.3,0.9l-0.4,1.1l-0.3,0.9l-0.2,0.6l-0.2,0.9l-0.5,1.5l-0.2,0.9l-0.3,1.1l-0.2,0.9l-0.2,0.7l-0.4,1.7l-0.1,0.7
		l-0.1,0.9l-0.1,0.8l-0.1,0.7l-0.1,0.6v0.7l0.1,0.9l0.2,0.8l0.4,0.6l0.4,0.4l0.6,0.2l0.9,0.1l1.1-0.2l1-0.4l1-0.6l0.9-0.7l0.6-0.6
		l0.3-0.5l-0.1-0.8l-0.3-0.9l-0.1-0.9l0.2-0.6l0.4-0.5l0.6-0.4l0.8-0.1l1,0.1h0.7l0.4-0.4l0.8-1.5l0.3-0.6l0.3-0.6l0.2-0.6l0.2-0.6
		l0.3-0.7l0.1-0.4l0.3-0.7l0.3-0.8l0.5-1.5l0.1-0.6l0.1-0.6l0.3-1.3l0.2-0.6l0.1-0.6l0.2-0.6l0.1-0.6l0.1-0.6v-0.6l0.1-0.6l0.1-0.7
		l0.1-0.8l0.1-0.9l0.4-0.5l0.8-0.3l1.2-0.1l1.1,0.1l1,0.4l0.7,0.6l0.3,0.6l0.1,0.6l-0.1,1.3l-0.1,0.6l-0.1,0.6l-0.1,0.7l-0.1,0.6
		l-0.1,0.6l-0.1,0.6l-0.1,0.6l-0.1,0.6l-0.4,1.3l-0.1,0.7l-0.1,0.4l-0.2,0.7l-0.2,0.6l-0.2,0.7l-0.1,0.4l-0.3,0.7l-0.3,0.6l-0.2,0.4
		l-0.6,1.3l-0.3,0.6l-0.3,0.6l-0.3,0.6l-0.3,0.6l-0.3,0.4l-0.7,1.1l-0.3,0.5l-0.4,0.6l-0.1,0.4l0.4,0.3l0.9,0.1h0.9l0.6-0.1l0.8-0.1
		l0.6-0.3l0.6-0.4l0.8-0.4l0.5-0.3l1.8-1.8l0.4-0.5l0.3-0.6l0.4-0.5l0.3-0.6l0.4-0.8l0.4-0.8l0.3-0.6l0.4-0.8l0.7-0.6l0.8,0.1
		l0.6,0.8v0.9l-0.4,0.8l-0.8,1.7l-0.3,0.6l-0.3,0.5l-0.8,1.2l-0.2,0.3l-0.5,0.6l-0.6,0.6l-1.5,1.5l-0.5,0.4l-0.8,0.4l-1.3,0.8
		l-0.6,0.3l-1.3,0.3l-0.7,0.1l-0.9,0.1L133,64l-0.7-0.1l-0.6-0.1l-0.6-0.1l-0.8-0.1l-0.8,0.1l-0.5,0.3l-0.5,0.4l-0.4,0.4l-1,0.8
		l-0.8,0.5l-0.7,0.5l-0.6,0.4l-0.8,0.4l-0.8,0.3l-0.6,0.2l-0.6,0.2l-0.6,0.2l-0.9,0.1l-0.8,0.1l-0.7,0.1l-1.8-0.1h-0.7L115.9,68.4z"
		/>
	<path class="st0" d="M165.6,51.2l-0.3,0.5l-0.8,1l-1,0.8l-0.5,0.3l-0.6,0.4l-0.4,0.1l-0.7,0.4l-0.4,0.2l-0.6,0.3l-0.7,0.2l-0.6,0.2
		l-0.6,0.1l-0.7,0.1l-0.8,0.1l-0.8,0.1l-0.6,0.1h-0.6l-1.3-0.1l-1.3-0.1l-0.6-0.1l-1.9-0.4h-0.5l-0.4,0.3l-0.1,0.5v0.6l-0.1,0.7v1.2
		l0.1,0.7l0.1,0.6l0.4,1.3l0.7,1.1l0.4,0.5l0.4,0.4l1.1,0.7l0.7,0.2l0.6,0.2l0.5,0.1l0.6,0.1l0.6,0.1h0.7l0.6-0.1l1.8-0.3l0.6-0.1
		l0.6-0.2l0.6-0.2l1.2-0.5l1.1-0.6l1-0.8l0.5-0.3l0.5-0.4l1-0.9l0.8-1l0.3-0.5l0.4-0.6l0.7-1l0.3-0.6l0.3-0.6l0.4-0.6l0.3-0.6
		l0.4-0.5l0.3-0.6l0.3-0.6l0.3-0.6l0.3-0.6l0.5-0.4h0.6l0.6,0.4l0.3,0.6l-0.1,0.6l-0.3,0.6l-0.4,0.8l-0.4,0.8l-0.3,0.8l-0.4,0.8
		l-0.4,0.7l-0.7,1.1l-0.2,0.4l-0.4,0.6l-0.7,1l-0.4,0.5l-0.4,0.4l-0.4,0.5l-0.5,0.6l-0.2,0.3l-0.5,0.6l-0.4,0.5l-1,0.8l-0.7,0.6
		l-0.6,0.6l-1.1,0.7l-1.8,0.8l-0.6,0.2l-0.6,0.2l-0.9,0.1l-0.8,0.2l-1.5,0.1l-0.9,0.1l-0.8,0.1h-0.6l-2.5-0.3l-0.6-0.1l-0.6-0.2
		l-0.6-0.3l-0.6-0.3l-1.1-0.6l-0.6-0.3l-0.5-0.4l-0.5-0.5l-0.3-0.4l-0.5-0.6l-0.4-0.5l-0.3-0.6l-0.3-0.5l-0.3-0.6l-0.2-0.6l-0.2-0.6
		l-0.1-0.6l-0.1-0.6l-0.1-0.6l-0.2-1.9v-1.3l0.1-0.6v-0.6l0.4-1.9l0.2-0.6l0.1-0.6l0.2-0.6l0.1-0.6l0.2-0.6l0.3-0.8l0.3-0.8l0.4-0.6
		l0.4-0.8l0.5-0.7l0.3-0.6l0.4-0.5l0.4-0.5l1-1.1l1-1l0.6-0.5l0.6-0.5l0.7-0.5l0.6-0.5l0.7-0.4l0.7-0.4l0.6-0.3l0.9-0.4l1.5-0.5
		l1.3-0.3l0.9-0.1h1.5l0.9,0.1l1.1,0.2l0.9,0.2l0.6,0.2l0.6,0.3l0.6,0.3l0.4,0.3l1,0.8l0.4,0.5l0.4,0.7l0.3,0.8l0.2,0.6l0.1,0.6
		l0.1,0.6v0.8l-0.1,0.9l-0.1,0.7l-0.2,0.8l-0.3,0.8l-0.3,0.7l-0.2,0.3l-0.3,0.6L165.6,51.2z M157,42.8l-1,0.4l-0.8,0.4l-0.6,0.4
		l-1,0.8l-0.6,0.6l-0.6,0.6l-0.5,0.6l-0.5,0.8l-0.5,0.7l-0.3,0.6l-0.4,0.8l-0.3,0.8l-0.3,0.6l-0.2,0.6l-0.1,0.5l0.4,0.4l0.9,0.2
		l1.4,0.1l0.7,0.1h2l0.7-0.1l0.6-0.1l0.7-0.3l0.4-0.1l0.7-0.3l0.5-0.4l0.5-0.4l0.5-0.5l0.5-0.4l0.4-0.6l0.3-0.5l0.3-0.6l0.3-0.6
		l0.4-1.3l0.1-0.7l0.1-0.6l-0.1-0.7l-0.3-0.6l-0.4-0.5l-0.6-0.4l-0.6-0.3l-0.6-0.1l-0.6-0.1l-0.7,0.1L157,42.8z"/>
	<path class="st0" d="M206.2,54.6l-0.3,0.6l-0.4,0.5l-0.3,0.6l-2.1,2.5l-0.5,0.4l-1.1,0.7l-0.7,0.4l-0.7,0.4l-0.7,0.3l-0.8,0.3
		l-1.3,0.4l-0.6,0.1l-1.9,0.2l-0.7,0.1h-0.6l-0.4,0.1l-0.2,0.2l0.3,0.4l0.8,1l0.4,0.6l0.3,0.6l0.6,1.1l0.2,0.6l0.2,0.6l0.4,1.3
		l0.1,0.6l0.3,3.2v2l-0.3,2.5l-0.1,0.7l-0.2,0.6l-0.1,0.6l-0.4,1.3l-0.3,0.7l-0.1,0.4l-0.3,0.7l-0.2,0.6l-0.4,0.6l-0.3,0.5l-0.7,1.1
		l-0.4,0.5l-1.4,1.4l-0.6,0.4l-0.5,0.3l-1.1,0.7l-1.3,0.4l-0.6,0.1l-0.7,0.1h-0.6l-1.3-0.1l-0.6-0.2l-0.6-0.3l-0.6-0.3l-1-0.8
		l-0.4-0.6l-0.3-0.5l-0.3-0.6l-0.2-0.6l-0.1-0.6l-0.1-0.6l-0.1-0.6V82l-0.1-0.6v-1.3l0.1-0.7l0.1-0.6l0.1-0.6l0.2-1.9l0.1-0.7
		L181,75v-0.6l0.1-0.6l0.1-1.3l0.1-0.6l0.1-0.6l0.1-0.7l0.1-0.6l0.1-0.6l0.1-0.6L182,68l0.1-0.6l0.1-0.6l0.1-0.8l0.1-0.4l0.1-0.8
		l0.1-0.6l0.1-0.6l0.1-0.6l0.2-0.9l0.2-0.8l0.1-0.7l0.1-0.6l0.3-1.3L184,58l0.1-0.6l0.2-0.6l0.1-0.8l0.3-0.9l0.1-0.7l0.1-0.6
		l0.1-0.6l0.2-0.6l0.1-0.6l0.2-0.6l0.1-0.6l0.2-0.8l0.1-0.3l0.2-0.8l0.1-0.6l0.1-0.6l0.2-0.6l0.2-0.6l0.2-0.6l0.1-0.6l0.1-0.6
		l0.4-1.3l0.2-0.6l0.2-0.6l0.1-0.6l0.2-0.6l0.3-0.7l0.1-0.4l0.3-0.7l0.2-0.6l0.3-0.8l0.3-0.8l0.3-0.7l0.3-0.8l0.3-0.8l0.2-0.7
		l0.7-1.7l0.3-0.6l0.2-0.6l0.3-0.6l0.6-1.1l0.3-0.6l0.3-0.5l0.3-0.6l0.3-0.6l0.4-0.8l0.4-0.8l0.3-0.5l0.8-1.1l0.6-0.6l0.6-0.7
		l0.6-0.4l1.4-1l0.6-0.4l0.7-0.3l0.6-0.2l0.6-0.1l0.6-0.1l0.9-0.1l0.8,0.1l0.7,0.2l0.8,0.4l0.9,0.6l0.7,0.6l0.4,0.6l0.4,0.8l0.4,0.8
		l0.3,1.3v0.6l0.1,0.6v0.7l-0.1,0.8l-0.1,0.9l-0.2,0.7l-0.3,0.8l-0.2,0.8l-0.3,1.3l-0.3,0.6l-0.7,1.7l-2.2,4.5l-0.7,1l-0.8,1
		l-0.4,0.6l-0.3,0.5l-0.5,0.4l-0.4,0.5l-0.4,0.4l-0.8,1l-0.5,0.4l-1,0.9l-0.4,0.3l-0.6,0.4l-0.5,0.4l-1,0.7l-0.5,0.4l-0.6,0.4
		l-0.5,0.4l-0.6,0.4l-0.8,0.4l-1.2,0.8l-0.8,0.6l-0.6,0.6l-0.3,0.6l-0.1,0.6l-0.2,0.6l-0.1,0.6l-0.1,0.7L190,56l-0.2,0.7l-0.2,0.6
		l-0.1,0.7v0.6l0.2,0.3l0.6,0.1l1.8,0.1l0.7,0.1l0.9-0.1l1.1-0.1l1.5-0.2l0.6-0.1l1.8-0.6l0.8-0.4l0.7-0.4l1.1-0.7l0.4-0.4l0.5-0.4
		l0.4-0.5l0.6-0.7l0.5-0.7l0.4-0.6l0.4-0.8l0.7-0.6L206,52l0.6,0.7l0.1,0.7l-0.3,0.6L206.2,54.6z M191.1,78.3l0.2-0.8l0.1-0.7
		l0.1-0.9l0.2-1.1l0.1-0.9v-0.7l0.1-0.8l0.1-0.9l-0.1-0.7l-0.1-0.9l-0.1-0.8l-0.1-0.7l-0.2-0.8l-0.3-0.8l-0.3-0.6l-0.9-1.5l-0.4-0.6
		l-0.6-0.4l-0.6,0.2l-0.3,0.7L188,65l-0.2,0.6l-0.1,0.7l-0.2,0.9l-0.1,0.8l-0.1,0.8l-0.1,0.8l-0.1,0.9l-0.1,0.6l-0.1,0.6l-0.1,0.7
		l-0.1,1.3l-0.1,0.6l-0.1,0.6l-0.1,0.6v0.6l-0.1,0.6l-0.1,0.6l-0.1,0.6v0.7l-0.1,0.6v0.6l-0.1,0.6v0.6l0.1,0.6l0.1,0.6l0.2,0.6
		l0.4,0.5l0.7,0.3l0.8-0.1l0.6-0.3l0.7-1l0.3-0.6l0.3-0.6l0.3-0.8l0.3-0.8l0.3-0.6L191.1,78.3z M199,28.8l-0.2,0.6l-0.6,1.3
		l-0.6,1.1l-0.3,0.6l-0.2,0.6l-0.3,0.6l-0.3,0.6l-0.2,0.6l-0.2,0.6l-0.1,0.6l-0.2,0.6l-0.3,0.7l-0.2,0.4l-0.3,0.7l-0.2,0.6l-0.2,0.6
		l-0.4,1.3l-0.2,0.6l-0.2,0.6l-0.1,0.6l-0.3,0.8l-0.1,0.4l-0.3,0.8l-0.3,1.1v0.4l0.3,0.1l1.1-0.8l0.5-0.4l0.4-0.5l1.3-1.3l0.8-1
		l0.9-0.9l0.3-0.6l0.4-0.5l0.4-0.6l1-1.5l0.4-0.6l0.3-0.6l0.4-0.6l0.3-0.8l0.4-0.8l0.3-0.6l0.3-0.6l0.2-0.6l0.2-0.6l0.3-0.6l0.2-0.6
		l0.1-0.6l0.1-0.6l0.4-1.3l0.1-0.6l0.1-0.6l0.1-0.6v-0.7l-0.1-0.6l-0.2-0.6l-0.4-0.4l-0.6-0.3l-0.6,0.1l-0.6,0.3l-0.5,0.4l-0.4,0.4
		l-0.4,0.6l-0.4,0.5l-0.7,1.1l-0.3,0.5L199,28.8z"/>
	<path class="st0" d="M223.5,64.7l-1,0.8l-1.1,0.7l-0.6,0.3l-1.1,0.7l-0.6,0.3l-1.3,0.4l-0.7,0.2l-1.3,0.2l-0.4,0.1l-0.7,0.1
		l-0.6,0.1h-0.6l-0.8,0.1h-0.6l-1.3-0.1l-0.8-0.2l-0.6-0.2l-0.5-0.2l-0.6-0.2l-0.6-0.3l-1.1-0.7l-0.5-0.4l-0.8-1l-0.3-0.6l-0.3-0.6
		l-0.3-0.6l-0.4-1.3l-0.3-1.3l-0.1-1.3l-0.1-0.7l0.1-0.6v-2l0.1-0.6l0.1-0.6l0.1-0.6l0.2-1.3l0.1-0.7l0.1-0.6l0.2-0.6L205,51
		l0.3-0.6l0.3-0.6l0.2-0.6l0.4-0.8l0.4-0.8l0.3-0.6l0.4-0.6l0.4-0.5l0.4-0.5l0.7-1.1l0.4-0.5l0.9-0.9l1-0.8l0.5-0.4l0.6-0.4l0.6-0.4
		l0.8-0.5l0.8-0.4l0.6-0.3l0.7-0.3l0.4-0.1l0.8-0.3l0.4-0.1l0.7-0.2l0.6-0.1l0.7-0.1l0.6-0.1h1.6l1.1,0.1l0.9,0.1l0.6,0.1l0.6,0.2
		l0.6,0.3l1.3,0.8l0.8,0.4l0.5,0.4l0.3,0.4l0.4,0.5l0.4,0.6l0.8,1.5l0.2,0.6l0.1,0.6l0.1,0.6l0.3,1.3v2.5l-0.1,0.8l-0.1,0.8
		l-0.1,0.7l-0.4,2.1l-0.3,1l-0.2,0.7l-0.3,0.7l-0.3,0.8l-0.2,0.6l-0.4,0.8l-0.6,1.3l-0.3,0.8l0.1,0.5l0.6,0.1h0.4l0.8-0.1l0.5-0.1
		l0.6-0.1l0.7-0.3l0.5-0.3l1.1-0.7l0.5-0.4l0.9-0.9l0.8-1l0.4-0.5l0.3-0.6l0.4-0.5l0.6-1.1l0.6-1.2l0.2-0.4l0.4-0.6l0.6-0.3l0.8,0.1
		l0.6,0.6l0.1,0.8l-0.2,0.6l-0.8,1.7l-0.4,0.5l-0.7,1.1l-0.3,0.6l-0.4,0.5l-0.4,0.6l-0.3,0.5l-0.4,0.4l-0.9,1l-0.4,0.4l-0.5,0.4
		l-0.5,0.4l-0.6,0.4l-0.5,0.3l-1.1,0.6l-0.6,0.3l-0.6,0.1l-2.5,0.3l-0.8-0.1l-0.6-0.1l-0.6-0.1l-0.6-0.1l-0.5,0.2l-0.5,0.4
		L223.5,64.7z M209.7,57l-0.1,0.8l0.1,0.7l0.1,0.9l0.1,1.1l0.3,1.1l0.5,1l0.5,0.7l0.6,0.5l0.8,0.3l1,0.3h0.9l0.7-0.1l0.7-0.1
		l0.6-0.3l0.6-0.3l0.6-0.3l0.6-0.3l0.5-0.4l0.6-0.4l0.3-0.5v-0.4l-0.3-0.5l-0.4-0.6l-0.1-0.6l0.1-0.8l0.3-0.8l0.5-0.4l0.6-0.3
		l0.6-0.1l0.6,0.1l0.5,0.1l0.4-0.1l0.3-0.4l0.2-0.6l0.8-2.5l0.4-1.9l0.1-0.9l0.2-1.2l0.1-2.4l-0.1-1.1l-0.3-1.2l-0.4-1.1l-0.5-0.7
		l-0.6-0.4l-0.8-0.4l-1.1-0.2l-0.9-0.1h-0.7l-0.6,0.1l-0.6,0.2l-0.7,0.4l-0.6,0.4l-0.6,0.4l-0.7,0.6l-0.5,0.4l-0.5,0.5l-0.4,0.5
		l-0.4,0.5l-0.3,0.6l-0.7,1l-0.4,0.6l-1.4,2.8l-0.2,0.6l-0.1,0.6l-0.4,1.3l-0.1,0.6l-0.2,0.6l-0.1,0.6v0.6L209.7,57z"/>
	<path class="st0" d="M241.2,37.2l-0.6-1.9l-0.1-0.6v-0.6l0.1-0.6l0.3-0.6l0.4-0.5l0.4-0.5l0.5-0.4l0.6-0.3l0.6-0.1h0.6l0.6,0.1
		l0.6,0.4l0.4,0.4l0.3,0.6l0.2,0.6V35l-0.1,0.7v0.6l0.1,0.6l0.4,0.5l0.5,0.5l0.5,0.4l0.5,0.6l0.8,0.9l0.5,0.4l0.9,0.9l0.5,0.6
		l0.3,0.4l0.5,0.6l0.5,0.4l0.4,0.5l0.7,1.1l0.2,0.6l0.2,0.8l0.2,0.9l-0.1,0.6l-0.2,0.6l-0.3,0.6l-0.4,0.5l-0.7,1.1l-0.4,0.5
		l-0.3,0.6l-0.4,0.5l-0.4,0.6L250,53l-0.4,0.6l-0.3,0.6l-1.2,2.4l-0.2,0.6l-0.2,0.6l-0.1,0.6l-0.1,0.7l-0.1,0.6l-0.1,0.6V61l0.3,1.4
		l0.4,0.6l0.3,0.6l0.5,0.4l0.6,0.3l0.7,0.1h1.3l0.6-0.1l0.6-0.2l0.6-0.3l0.5-0.3l1-0.7l0.6-0.4l0.5-0.4l0.4-0.4l0.4-0.6l1.3-1.5
		l1-1.7l0.4-0.5l0.3-0.6l0.4-0.6l0.3-0.6l0.4-0.6l0.2-0.4l0.4-0.8l0.3-0.6l0.2-0.6l0.3-0.6l0.6-0.3l0.9,0.2l0.6,0.7v0.8l-0.2,0.6
		l-0.6,1.2l-0.3,0.6l-0.3,0.6l-0.6,1.1l-0.7,1.1l-0.4,0.6l-0.3,0.4l-0.3,0.6l-0.7,1.1l-0.8,1.1l-0.6,0.8l-0.5,0.7l-0.8,1l-0.5,0.4
		l-0.8,0.8l-0.6,0.4l-0.6,0.4l-1.1,0.6l-0.6,0.3l-0.6,0.3l-0.6,0.2l-0.6,0.1l-0.7,0.1h-1.6l-0.9-0.1l-1.4-0.3l-0.6-0.2l-0.7-0.4
		l-1-0.7l-0.5-0.4l-0.4-0.4l-0.4-0.6l-0.3-0.5l-0.3-0.6l-0.3-0.6l-0.1-0.6l-0.1-0.7l-0.1-0.6l-0.1-0.6v-0.6l0.3-2.5l0.2-0.6L242,57
		l0.3-0.6l0.3-0.8l0.4-0.8l0.3-0.6l0.5-0.8l0.5-0.7l0.3-0.6l0.4-0.8l0.6-0.8l0.4-0.6l0.6-1l0.8-1.1l0.3-0.8l0.2-1.1l-0.1-0.8
		l-0.7-1.1l-0.4-0.6l-1.1-1.3l-0.4-0.5l-0.6-0.4l-0.6,0.1l-0.3,0.6l-0.1,0.6l-0.2,0.6l-0.1,0.6l-0.1,0.6l-0.2,0.6l-0.6,1.7l-0.2,0.6
		l-0.2,0.6l-0.2,0.6l-0.4,0.8l-0.3,0.8l-0.3,0.6l-0.4,0.8l-0.3,0.8l-0.3,0.7l-0.4,0.8l-0.4,0.8l-0.3,0.6l-0.4,0.4h-0.6l-0.6-0.4
		l-0.4-0.5l0.1-0.6l0.2-0.6l0.3-0.6l0.2-0.6l0.2-0.6l0.6-1.3l0.2-0.4l0.3-0.7l0.3-0.6l0.2-0.6l0.3-0.6l0.2-0.6l0.2-0.6l0.6-1.3
		l0.1-0.6l0.2-0.6l0.1-0.6l0.3-0.6l0.1-0.6l0.1-0.6l0.1-0.6l0.2-0.6l0.1-0.7v-0.6l-0.1-0.6L241.2,37.2z"/>
	<path class="st0" d="M280.6,88.3l-0.8-0.2l-0.4-0.1l-0.6-0.3l-0.6-0.3l-0.5-0.4l-0.4-0.4l-0.4-0.6l-0.5-0.8l-0.3-0.8l-0.1-0.6
		l-0.1-0.6l0.1-0.7l0.1-0.9l0.2-0.8l0.2-0.6l0.3-0.8l0.4-0.8l0.3-0.6l0.5-0.6l0.4-0.5l0.8-0.8l1.5-1.3l0.5-0.3l1.5-1l0.6-0.3
		l0.8-0.4l0.8-0.3l0.7-0.4l0.3-0.1l0.8-0.4l0.8-0.4l0.7-0.3l0.6-0.4l0.6-0.2l0.5-0.3l0.4-0.4l0.2-0.6l0.4-1.2l0.6-1.8l0.1-0.6
		l0.2-0.6l0.1-0.6l0.1-0.6l0.2-0.6l0.1-0.6l0.2-0.6l0.4-1.1l0.2-0.6h-0.1l-0.3,0.6l-0.7,1.1l-0.3,0.5l-0.4,0.5l-0.4,0.5l-0.5,0.6
		l-0.3,0.4l-0.5,0.6l-0.4,0.5l-0.9,0.9l-0.5,0.4l-0.6,0.4l-1.1,0.6l-0.6,0.4l-0.6,0.3l-0.6,0.1l-0.6,0.1l-1.3,0.1h-1.3l-0.8-0.1
		l-0.8-0.1l-0.7-0.3l-0.8-0.4l-0.7-0.5l-0.5-0.5l-0.4-0.5l-0.4-0.6l-0.4-0.8l-0.3-0.8l-0.1-0.6l-0.1-0.6l-0.1-0.7l-0.1-0.8l-0.1-0.9
		v-0.7l0.1-1.3l0.1-0.9l0.2-1.1l0.3-0.9l0.2-0.6l0.1-0.6l0.2-0.6l0.2-0.6l0.3-0.6l0.3-0.8l0.6-1.3l0.3-0.7l0.4-0.6l0.3-0.5l0.9-1.3
		l0.5-0.8l0.4-0.5l0.7-1l0.8-1l0.5-0.4l0.6-0.4l0.9-0.8l2-1.5l1.5-0.8l0.7-0.3l0.8-0.4l1.5-0.5l0.7-0.1l0.4-0.1l0.7-0.2l0.6-0.1
		l1.3-0.1h0.7l1.8,0.1h0.6l0.6,0.1l0.6,0.1l0.6,0.1l0.7,0.3l0.6,0.2l0.5,0.1l0.6,0.3l0.6,0.2l0.6,0.3l0.8,0.5l0.6,0.4l0.6,0.4
		l0.6,0.4l0.4,0.5l0.2,0.7l-0.2,0.8l-0.4,0.6l-0.4,0.4l-0.5,0.4l-0.6,0.3l-0.6-0.1l-0.6-0.4l-1-0.6l-1.1-0.7l-0.6-0.3l-0.6-0.2
		l-0.6-0.1l-0.6-0.2l-1.3-0.3h-2l-0.6,0.1l-0.7,0.1l-0.8,0.2l-0.8,0.3l-0.8,0.2l-0.8,0.4l-1,0.6l-0.8,0.6l-0.5,0.4l-0.5,0.4
		l-0.4,0.5l-0.6,0.6l-0.6,0.7l-0.5,0.6l-0.5,0.7l-0.8,1.2l-0.6,0.8l-0.4,0.8l-0.6,1.3l-0.2,0.6l-0.3,0.6l-0.4,1.3l-0.1,0.6l-0.2,0.6
		l-0.1,0.7l-0.1,0.6l-0.1,0.6l-0.1,0.7l-0.1,0.6v0.7l0.1,0.6l0.2,0.6l0.2,0.7l0.1,0.4l0.3,0.7l0.4,0.4l0.6,0.3l0.6,0.1h0.6l0.6-0.1
		l0.6-0.1l0.6-0.3l1.5-1l0.5-0.4l0.4-0.4l0.4-0.5l0.4-0.4l0.4-0.5l0.3-0.5l0.7-1.1l0.5-0.7l0.6-0.7l0.4-0.6l0.3-0.5l0.2-0.6l0.6-1.1
		l0.6-1.1l0.3-0.6l0.3-0.6l1.7-5l0.1-0.6l0.3-0.7l0.6-0.6l0.7-0.4h0.7l0.9,0.1l0.8,0.3l0.6,0.3l0.5,0.6l0.2,0.8l-0.1,0.6l-0.1,0.6
		l-0.4,1.3l-0.1,0.6l-0.2,0.6l-0.1,0.6l-0.4,1.3l-0.1,0.6l-0.1,0.6l-0.2,0.6l-0.4,1.9l-0.4,1.3l-0.1,0.6l-0.1,0.7l-0.1,0.4l-0.1,0.7
		l-0.1,0.6l-0.2,0.6l-0.3,0.9l-0.2,0.8l-0.2,0.6l-0.1,0.6l-0.6,1.9l-0.1,0.8l0.1,0.4l0.6-0.1l1-0.5l0.6-0.3l0.6-0.3l0.5-0.4l0.6-0.4
		l0.4-0.3l0.5-0.5l0.4-0.4l0.5-0.4l0.6-0.6l0.5-0.4l0.4-0.5l0.3-0.5l0.4-0.6l0.4-0.5l0.4-0.6l0.6-0.8l0.5-0.6l0.7-1.1l0.3-0.5
		l0.4-0.6l0.3-0.6l0.2-0.6l0.8-1.7l0.3-0.6l0.3-0.6l0.4-0.5l0.4-0.3h0.6l0.6,0.4l0.3,0.5v0.6l-0.3,0.6l-0.3,0.8l-0.4,0.8l-0.3,0.6
		l-0.3,0.6l-0.3,0.6l-0.4,0.8l-0.4,0.8l-0.4,0.7l-0.5,0.7l-0.4,0.7l-0.4,0.6l-0.4,0.5l-0.4,0.6l-0.2,0.4l-1,1.3l-0.6,0.7l-0.8,0.8
		l-0.6,0.5l-0.9,0.8l-0.4,0.5l-0.5,0.4l-0.4,0.4l-0.6,0.3l-0.5,0.4l-0.6,0.3l-0.5,0.4l-0.6,0.3l-1.1,0.6l-1.1,0.6l-0.6,0.3l-0.6,0.3
		l-0.3,0.6l-0.4,0.8l-0.1,0.6l-0.2,0.6l-0.1,0.6l-0.2,0.7l-0.1,0.4l-0.2,0.7l-0.2,0.6l-0.3,0.9l-0.3,1l-0.5,1l-0.4,0.9l-0.2,0.6
		l-0.2,0.6l-0.3,0.6l-0.4,0.6l-0.5,0.8l-0.4,0.6l-0.4,0.5l-0.4,0.4l-0.4,0.4l-0.4,0.4l-0.6,0.4l-0.6,0.4l-0.8,0.3l-1.1,0.3l-0.9,0.1
		l-0.6,0.1H283l-0.7-0.1L280.6,88.3z M281.1,82.3l0.1,0.8l0.3,0.6l0.7,0.4l0.8,0.2l0.7-0.1l0.6-0.2l0.6-0.3l0.7-0.6l0.6-0.6l0.4-0.6
		l0.3-0.5l0.3-0.6l0.7-1.5l0.2-0.7l1-2.9l0.1-0.9l-0.4-0.3l-0.6,0.3l-0.6,0.4l-1.7,1l-0.5,0.4l-0.6,0.5l-0.5,0.4l-1.3,1.3l-0.4,0.5
		l-0.4,0.6l-0.4,0.5l-0.3,0.6l-0.3,0.6L281.1,82.3z"/>
	<path class="st0" d="M313.5,37.2l-0.6-1.9l-0.1-0.6v-0.6l0.1-0.6l0.3-0.6l0.4-0.5l0.4-0.5l0.5-0.4l0.6-0.3l0.6-0.1h0.6l0.6,0.1
		l0.6,0.4l0.4,0.4l0.3,0.6l0.2,0.6V35l-0.1,0.7v0.6l0.1,0.6l0.4,0.5l0.5,0.5l0.5,0.4l0.5,0.6l0.8,0.9l0.5,0.4l0.9,0.9l0.5,0.6
		l0.3,0.4l0.5,0.6l0.5,0.4l0.4,0.5l0.7,1.1l0.2,0.6l0.2,0.8l0.2,0.9l-0.1,0.6l-0.2,0.6l-0.3,0.6l-0.4,0.5l-0.7,1.1l-0.4,0.5
		l-0.3,0.6l-0.4,0.5l-0.4,0.6l-0.3,0.6l-0.4,0.6l-0.3,0.6l-1.2,2.4l-0.2,0.6l-0.2,0.6l-0.1,0.6l-0.1,0.7l-0.1,0.6l-0.1,0.6V61
		l0.3,1.4l0.4,0.6l0.3,0.6L321,64l0.6,0.3l0.7,0.1h1.3l0.6-0.1l0.6-0.2l0.6-0.3l0.5-0.3l1-0.7l0.6-0.4l0.5-0.4l0.4-0.4l0.4-0.6
		l1.3-1.5l1-1.7l0.4-0.5l0.3-0.6l0.4-0.6l0.3-0.6l0.4-0.6l0.2-0.4l0.4-0.8l0.3-0.6l0.2-0.6l0.3-0.6l0.6-0.3l0.9,0.2l0.6,0.7v0.8
		l-0.2,0.6l-0.6,1.2l-0.3,0.6l-0.3,0.6l-0.6,1.1l-0.7,1.1l-0.4,0.6l-0.3,0.4l-0.3,0.6l-0.7,1.1l-0.8,1.1l-0.6,0.8l-0.5,0.7l-0.8,1
		l-0.5,0.4l-0.8,0.8l-0.6,0.4l-0.6,0.4l-1.1,0.6l-0.6,0.3l-0.6,0.3l-0.6,0.2l-0.6,0.1l-0.7,0.1H321l-0.9-0.1l-1.4-0.3l-0.6-0.2
		l-0.7-0.4l-1-0.7l-0.5-0.4l-0.4-0.4l-0.4-0.6l-0.3-0.5l-0.3-0.6l-0.3-0.6l-0.1-0.6l-0.1-0.7l-0.1-0.6l-0.1-0.6v-0.6l0.3-2.5
		l0.2-0.6l0.2-0.6l0.3-0.6l0.3-0.8l0.4-0.8l0.3-0.6l0.5-0.8l0.5-0.7l0.3-0.6l0.4-0.8l0.6-0.8l0.4-0.6l0.6-1l0.8-1.1l0.3-0.8l0.2-1.1
		l-0.1-0.8l-0.7-1.1l-0.4-0.6l-1.1-1.3l-0.4-0.5l-0.6-0.4l-0.6,0.1l-0.3,0.6l-0.1,0.6l-0.2,0.6l-0.1,0.6l-0.1,0.6l-0.2,0.6l-0.6,1.7
		l-0.2,0.6l-0.2,0.6l-0.2,0.6l-0.4,0.8l-0.3,0.8l-0.3,0.6l-0.4,0.8l-0.3,0.8l-0.3,0.7l-0.4,0.8l-0.4,0.8l-0.3,0.6l-0.4,0.4h-0.6
		l-0.6-0.4l-0.4-0.5l0.1-0.6l0.2-0.6l0.3-0.6l0.2-0.6l0.2-0.6l0.6-1.3l0.2-0.4l0.3-0.7l0.3-0.6l0.2-0.6l0.3-0.6l0.2-0.6l0.2-0.6
		l0.6-1.3l0.1-0.6l0.2-0.6l0.1-0.6l0.3-0.6l0.1-0.6l0.1-0.6l0.1-0.6l0.2-0.6l0.1-0.7v-0.6l-0.1-0.6L313.5,37.2z"/>
	<path class="st0" d="M356.7,51.2l-0.3,0.5l-0.8,1l-1,0.8l-0.5,0.3l-0.6,0.4l-0.4,0.1l-0.7,0.4l-0.4,0.2l-0.6,0.3l-0.7,0.2l-0.6,0.2
		l-0.6,0.1l-0.7,0.1l-0.8,0.1l-0.8,0.1l-0.6,0.1h-0.6l-1.3-0.1l-1.3-0.1l-0.6-0.1l-1.9-0.4h-0.5l-0.4,0.3l-0.1,0.5v0.6l-0.1,0.7v1.2
		l0.1,0.7l0.1,0.6l0.4,1.3l0.7,1.1l0.4,0.5l0.4,0.4l1.1,0.7l0.7,0.2l0.6,0.2l0.5,0.1l0.6,0.1l0.6,0.1h0.7l0.6-0.1l1.8-0.3l0.6-0.1
		l0.6-0.2l0.6-0.2l1.2-0.5l1.1-0.6l1-0.8l0.5-0.3l0.5-0.4l1-0.9l0.8-1l0.3-0.5l0.4-0.6l0.7-1l0.3-0.6l0.3-0.6l0.4-0.6l0.3-0.6
		l0.4-0.5l0.3-0.6l0.3-0.6l0.3-0.6l0.3-0.6l0.5-0.4h0.6l0.6,0.4l0.3,0.6l-0.1,0.6l-0.3,0.6l-0.4,0.8l-0.4,0.8l-0.3,0.8l-0.4,0.8
		l-0.4,0.7l-0.7,1.1l-0.2,0.4l-0.4,0.6l-0.7,1l-0.4,0.5l-0.4,0.4l-0.4,0.5l-0.5,0.6l-0.2,0.3l-0.5,0.6l-0.4,0.5l-1,0.8l-0.7,0.6
		l-0.6,0.6l-1.1,0.7l-1.8,0.8l-0.6,0.2l-0.6,0.2l-0.9,0.1l-0.8,0.2l-1.5,0.1l-0.9,0.1l-0.8,0.1h-0.6l-2.5-0.3l-0.6-0.1l-0.6-0.2
		l-0.6-0.3l-0.6-0.3l-1.1-0.6l-0.6-0.3l-0.5-0.4l-0.5-0.5l-0.3-0.4l-0.5-0.6l-0.4-0.5l-0.3-0.6l-0.3-0.5l-0.3-0.6l-0.2-0.6l-0.2-0.6
		l-0.1-0.6l-0.1-0.6l-0.1-0.6l-0.2-1.9v-1.3l0.1-0.6v-0.6l0.4-1.9l0.2-0.6l0.1-0.6l0.2-0.6l0.1-0.6l0.2-0.6l0.3-0.8l0.3-0.8l0.4-0.6
		l0.4-0.8l0.5-0.7l0.3-0.6l0.4-0.5l0.4-0.5l1-1.1l1-1l0.6-0.5l0.6-0.5l0.7-0.5l0.6-0.5l0.7-0.4l0.7-0.4l0.6-0.3l0.9-0.4l1.5-0.5
		l1.3-0.3l0.9-0.1h1.5l0.9,0.1l1.1,0.2l0.9,0.2l0.6,0.2l0.6,0.3l0.6,0.3l0.4,0.3l1,0.8l0.4,0.5l0.4,0.7l0.3,0.8l0.2,0.6l0.1,0.6
		l0.1,0.6v0.8l-0.1,0.9l-0.1,0.7l-0.2,0.8l-0.3,0.8l-0.3,0.7l-0.2,0.3l-0.3,0.6L356.7,51.2z M348.1,42.8l-1,0.4l-0.8,0.4l-0.6,0.4
		l-1,0.8l-0.6,0.6l-0.6,0.6l-0.5,0.6l-0.5,0.8l-0.5,0.7l-0.3,0.6l-0.4,0.8l-0.3,0.8l-0.3,0.6l-0.2,0.6l-0.1,0.5l0.4,0.4l0.9,0.2
		l1.4,0.1l0.7,0.1h2l0.7-0.1l0.6-0.1l0.7-0.3l0.4-0.1l0.7-0.3l0.5-0.4l0.5-0.4l0.5-0.5l0.5-0.4l0.4-0.6l0.3-0.5l0.3-0.6l0.3-0.6
		l0.4-1.3l0.1-0.7l0.1-0.6l-0.1-0.7l-0.3-0.6l-0.4-0.5l-0.6-0.4l-0.6-0.3l-0.6-0.1l-0.6-0.1l-0.7,0.1L348.1,42.8z"/>
	<path class="st0" d="M395.5,54.7l-0.1,0.4l-0.4,0.7l-0.3,0.5l-0.3,0.6l-0.3,0.6l-0.3,0.6l-0.7,1.1l-0.4,0.5l-0.3,0.6l-0.3,0.6
		l-0.3,0.6l-0.4,0.5l-0.4,0.6l-0.4,0.5l-0.8,1l-0.4,0.5l-0.4,0.4l-2,1.7l-0.6,0.3l-0.6,0.4l-0.8,0.3l-0.8,0.4l-0.6,0.2l-0.6,0.1
		h-0.7l-0.8-0.1l-0.8-0.2l-0.6-0.2l-0.5-0.3l-0.5-0.4l-0.5-0.7l-0.5-0.8l-0.2-0.6l-0.2-0.8l-0.1-0.9v-0.7l0.1-0.9l0.1-0.8l-0.2-0.1
		L377,61l-0.7,1.1l-0.7,1l-0.4,0.5l-0.4,0.5l-0.4,0.5l-0.3,0.5l-0.5,0.4l-0.4,0.4l-0.5,0.4l-0.5,0.3l-0.6,0.3l-0.8,0.5l-1,0.5
		l-1.1,0.3l-0.9,0.2l-1.3,0.1l-0.7-0.1l-0.8-0.1l-0.8-0.2l-0.6-0.2l-0.6-0.2l-0.5-0.4l-1-0.8l-0.4-0.5l-0.3-0.6l-0.4-0.8l-0.4-1
		l-0.2-0.9l-0.1-0.7l-0.1-0.9l-0.1-1.1v-0.9l0.1-0.7l0.1-0.9l0.1-0.8l0.2-0.7l0.2-0.8l0.2-0.9l0.2-0.6l0.3-0.6l0.2-0.6l1.7-3.4
		l0.4-0.6l0.3-0.5l0.3-0.6l0.7-1l0.4-0.5l0.9-1l0.3-0.3l0.5-0.6l1-0.8l0.6-0.6l0.8-0.6l1-0.8l0.6-0.4l0.5-0.4l0.6-0.3l0.8-0.4
		l0.8-0.4l0.7-0.4l0.8-0.3l0.8-0.2l0.7-0.2l1.8-0.1l0.6-0.1h0.8l1.4,0.1l1.6,0.1l1.5,0.3l0.6,0.1l0.8,0.2l2.8,1.3l0.5,0.4l0.5,0.3
		l0.5,0.4l0.4,0.5l0.1,0.8l-0.3,1l-0.8,0.8l-0.8,0.5l-0.6,0.1l-0.6-0.2l-0.6-0.4l-0.6-0.4l-0.6-0.4l-0.5-0.2l-0.6-0.3l-0.6-0.3
		l-0.6-0.1l-1.2-0.3l-0.7-0.2l-0.7-0.1h-1.4l-0.5,0.1l-0.7,0.1l-0.9,0.2l-1.8,0.6l-0.7,0.4l-0.7,0.4l-0.5,0.4l-0.6,0.4l-0.5,0.4
		l-0.5,0.4l-0.6,0.5l-0.3,0.3l-0.5,0.6l-0.4,0.5l-0.3,0.5l-0.8,1l-0.3,0.5l-0.3,0.6l-0.8,1.7l-0.3,0.6l-0.4,1.3l-0.3,0.6l-0.3,0.6
		l-0.4,1.9l-0.2,0.7l-0.2,1.9v2l0.1,0.7l0.2,0.6L366,63l0.4,0.6l0.4,0.4l0.6,0.3l0.8,0.1l0.9-0.1l0.6-0.2l1.1-0.6l1-0.8l0.4-0.4
		l0.5-0.4l0.4-0.5l0.4-0.5l0.4-0.5l0.3-0.5l0.8-1l0.3-0.5l1.1-1.7l0.4-0.8l0.5-0.9l0.3-0.4l0.8-1.8l0.3-0.6l0.1-0.5l0.3-0.6l0.2-0.6
		l0.2-0.6l0.3-0.8l0.4-1.4l0.3-0.8l0.2-0.7l0.4-0.6l0.7-0.4l0.6-0.1l0.6,0.1l0.6,0.1l1.1,0.6l0.6,0.4l0.3,0.4l0.1,0.6l-0.2,0.6
		l-0.1,0.6l-0.2,0.6l-0.3,1.3l-0.2,0.6l-0.1,0.6l-0.4,1.3l-0.1,0.7l-0.1,0.4l-0.2,0.8l-0.1,0.6l-0.3,1.2l-0.2,0.8l-0.1,0.7l-0.1,0.8
		l-0.2,1l-0.2,1.2l-0.1,1l0.1,0.9l0.3,0.6l0.7,0.4l1,0.1l0.8-0.3l0.6-0.4l1-0.7l0.5-0.5l0.8-0.9l0.8-1l0.7-1l0.3-0.6l0.4-0.6
		l0.1-0.4l1.1-1.7l0.3-0.6l0.4-0.6l1.4-2.8l0.6-0.3l0.8,0.1l0.6,0.7l0.1,0.7l-0.3,0.6L395.5,54.7z"/>
	<path class="st0" d="M415.9,52.7v0.8l-0.3,0.7l-0.8,1.5l-0.3,0.6l-0.3,0.6l-0.7,1.1l-0.3,0.5l-0.3,0.6l-0.6,1l-0.3,0.5l-0.4,0.6
		l-0.8,1l-0.3,0.6l-0.4,0.5l-0.4,0.5l-1.3,1.3l-1,0.8l-1,0.8l-0.6,0.4l-0.8,0.4l-0.8,0.3l-0.6,0.3l-0.6,0.2l-0.6,0.1l-0.6,0.1h-2
		l-0.6-0.1l-0.6-0.1l-0.8-0.3l-0.8-0.3l-0.6-0.3l-1-0.8l-0.4-0.5l-0.3-0.6l-0.6-1.1l-0.2-0.6l-0.2-0.6l-0.1-0.6l-0.1-0.6v-0.6
		l-0.1-0.6v-0.6l-0.1-0.7v-0.6l0.2-1.9v-0.6l0.4-3.2l0.1-0.6l0.1-0.6l0.3-1.3l0.2-0.9l0.2-0.8l0.1-0.6l0.2-0.6l0.1-0.6l0.2-0.6
		l0.1-0.6l0.1-0.8L396,44l0.4-1.3v-0.6l-0.2-0.4l-0.5-0.1l-0.6-0.1l-0.7-0.1l-0.7-0.3l-0.5-0.6l-0.1-0.6l-0.1-0.7l0.1-0.6l0.3-0.5
		l0.5-0.4l0.9-0.1l1,0.1h1.1l0.7-0.2l0.3-0.5l0.1-0.7l0.1-0.6l0.2-0.6l0.3-0.6L399,34l0.2-0.6l0.4-1.3l0.3-1.3l0.2-0.6l0.3-0.6
		l0.4-1.3l0.2-0.6l0.3-0.6l0.2-0.6l0.2-0.6l0.2-0.6l0.3-0.6l0.3-0.6l0.1-0.6l0.2-0.6l0.3-0.6l0.4-0.5l0.6-0.4l0.6-0.1l0.7,0.1
		l0.8,0.1l0.9,0.2l0.6,0.4l0.6,0.5l0.2,0.8l-0.1,0.6l-0.4,0.9l-0.4,1l-0.3,0.9l-0.2,0.7l-0.1,0.4l-0.2,0.7l-0.8,2.3l-0.2,0.6
		l-0.2,0.6l-0.3,0.9l-0.4,1.1l-0.5,1.5l-0.1,0.6l-0.3,0.6l-0.2,0.6v0.5l0.4,0.4l0.8,0.1h0.7l1.2-0.1l1-0.1h2.2l0.9,0.1l0.5,0.4
		l0.1,0.8v0.9l-0.2,0.6l-0.4,0.5l-0.5,0.4l-0.6,0.2l-0.6,0.1l-0.7,0.1l-1.9,0.1h-0.8l-0.6-0.1h-2.6l-0.4,0.3l-0.2,0.6l-0.3,0.8
		l-0.3,1.1l-0.3,1.2l-0.3,1.1l-0.3,1.2l-0.3,1.1l-0.2,1l-0.1,0.4l-0.2,1l-0.2,0.8l-0.2,0.7l-0.3,1.3l-0.1,0.8l-0.1,0.9l-0.1,1.3v2
		l0.1,0.9l0.1,0.8l0.2,0.6l0.3,0.6l0.3,0.5l0.8,0.5l1,0.4l0.8,0.1h0.7l0.8-0.1l1.7-0.8l2-1.7l0.5-0.5l0.3-0.4l0.7-0.9l0.9-1.1
		l0.4-0.5l0.3-0.6l0.4-0.6l0.4-0.6l0.3-0.5l0.4-0.6l0.3-0.6l0.2-0.6l0.3-0.7l0.3-0.6l0.4-0.7l0.8-0.6l0.9,0.1L415.9,52.7z"/>
	<path class="st0" d="M431.9,45.4l0.5-0.5l0.8-1l1.5-1.3l0.5-0.4l0.6-0.4l0.5-0.4l0.6-0.3l0.6-0.3l1-0.6l0.6-0.4l1.3-0.4l0.6-0.2
		l1.3-0.3l0.6-0.1l0.7-0.1l1.3-0.1h1.6l0.9,0.1l0.8,0.1l0.5,0.1l0.4-0.2l0.3-0.5l0.1-0.6l0.4-1.3l0.1-0.6l0.2-0.6l0.5-1.2l0.2-0.7
		l0.1-0.4l0.3-0.7l0.1-0.6l0.4-1.3l0.2-0.6l0.7-2.1l0.4-0.8l0.4-1.3l0.2-0.6l0.3-0.7l0.1-0.4l0.6-1.3l0.2-0.6l0.6-1.2l0.3-0.6
		l0.6-0.5l0.8-0.3h0.7l0.6,0.1l0.7,0.1l0.4,0.1l0.7,0.2l0.5,0.4l0.2,0.6l-0.1,0.6l-0.1,0.6l-0.3,0.6l-0.3,0.6l-0.2,0.6l-0.2,0.6
		l-0.4,0.8l-0.3,0.8l-0.3,0.8l-0.8,2.2l-0.3,0.8l-0.3,0.8l-0.2,0.6l-0.2,0.6l-0.5,1.5l-0.4,0.8l-0.2,0.7l-0.8,2.3l-0.1,0.6l-0.2,0.6
		l-0.2,0.6l-0.2,0.6l-0.2,0.6l-0.2,0.6l-0.1,0.6l-0.1,0.6l-0.1,0.6l-0.2,0.6l-0.2,0.6L453,45l-0.1,0.6l-0.1,0.6l-0.1,0.6l-0.2,0.6
		l-0.2,0.9l-0.3,0.9l-0.1,0.4l-0.2,0.8l-0.1,0.6l-0.1,0.8l-0.1,0.9l-0.4,1.9l-0.1,0.6l-0.1,0.6l-0.1,0.9l-0.1,0.8l-0.1,0.6L450,59
		l-0.1,0.6v0.6L450,61l0.1,0.9l0.2,0.8l0.2,0.6l0.4,0.4l0.6,0.2l0.6,0.1l0.6-0.1l0.6-0.2l0.6-0.3l1.3-1.1l0.5-0.5l0.7-1l0.7-1.1
		l1-1.4l0.4-0.6l0.3-0.6l0.4-0.6l0.7-1.5l0.3-0.6l0.3-0.5l0.3-0.6l0.3-0.8l0.8-0.6l0.8,0.1l0.5,0.7v0.9l-0.4,0.8l-0.3,0.7l-0.4,0.8
		l-0.4,0.9l-0.3,0.4l-0.8,1.7l-0.4,0.6L459,61l-0.7,1.1l-0.4,0.5l-0.4,0.6l-0.3,0.5l-0.4,0.4l-0.5,0.4l-0.5,0.6l-0.3,0.3l-0.5,0.6
		l-0.5,0.4l-0.6,0.4l-0.5,0.3l-0.6,0.3l-1.8,0.6l-0.6,0.1h-0.6l-0.6,0.1l-0.6-0.1l-0.6-0.1l-0.6-0.3l-0.6-0.4l-0.4-0.3l-0.5-0.5
		l-0.7-1l-0.3-0.6l-0.2-0.6l-0.1-0.6l-0.2-1.9v-1.3l-0.1-0.1l-0.3,0.5l-0.4,0.6l-0.6,1.1l-0.3,0.5l-0.4,0.5l-0.8,1L441,65l-1.5,1.3
		l-0.6,0.5l-0.7,0.6l-0.6,0.4L437,68l-0.7,0.2l-1.6,0.4l-0.7,0.1l-0.6,0.1l-0.6-0.1l-0.6-0.1l-0.6-0.1l-0.6-0.1l-0.6-0.3l-0.5-0.3
		l-0.6-0.4l-0.6-0.6l-0.6-0.6l-0.4-0.6l-0.3-0.6l-0.2-0.6l-0.4-1.1l-0.2-0.6l-0.1-0.6l-0.1-0.8v-0.9l-0.1-0.6V59l0.1-0.7l0.1-0.8
		l0.1-0.9l0.1-0.6l0.2-0.7l0.1-0.4l0.2-0.7l0.2-0.6l0.6-1.7l0.2-0.6l0.6-1.1l0.4-0.8l0.4-0.8l0.4-0.7l0.3-0.4l0.4-0.6l0.7-1
		L431.9,45.4z M446.2,43l-1.3,0.1h-0.6l-0.6,0.1l-0.7,0.1l-0.4,0.1l-0.7,0.3l-0.6,0.2l-0.6,0.3l-0.6,0.3l-0.5,0.4l-0.5,0.4l-0.5,0.5
		l-1,0.8l-0.4,0.4l-0.4,0.5l-0.8,1l-0.3,0.5l-0.4,0.6l-0.8,1.5l-0.4,0.6l-0.2,0.6l-0.2,0.6l-0.2,0.6l-0.3,0.6l-0.4,1.7l-0.2,0.6
		l-0.1,0.9l-0.1,0.8l-0.1,0.7l0.1,0.9l0.1,1.1l0.1,0.9l0.2,0.6l0.3,0.5l0.4,0.4l0.5,0.4l0.6,0.3l0.8,0.1l0.8-0.1L437,64l0.4-0.2
		l0.6-0.4l0.5-0.3l0.8-0.8l0.5-0.6l0.4-0.5l0.5-0.5l0.3-0.5l0.4-0.6l0.4-0.6l0.5-0.8l0.5-0.6l0.3-0.6l0.3-0.6l0.2-0.6l0.3-0.6
		l0.3-0.8l0.4-0.8l0.3-0.6l0.2-0.6l1-2.9l0.3-0.9l0.6-2.2l0.2-0.9l0.2-0.7l0.1-0.8l-0.2-0.6l-0.5-0.3H446.2z"/>
	<path class="st0" d="M483.3,51.2l-0.3,0.5l-0.8,1l-1,0.8l-0.5,0.3l-0.6,0.4l-0.4,0.1l-0.7,0.4l-0.4,0.2l-0.6,0.3l-0.7,0.2l-0.6,0.2
		l-0.6,0.1l-0.7,0.1l-0.8,0.1l-0.8,0.1l-0.6,0.1h-0.6L471,56l-1.3-0.1l-0.6-0.1l-1.9-0.4h-0.5l-0.4,0.3l-0.1,0.5v0.6l-0.1,0.7v1.2
		l0.1,0.7l0.1,0.6l0.4,1.3l0.7,1.1l0.4,0.5l0.4,0.4l1.1,0.7l0.7,0.2l0.6,0.2l0.5,0.1l0.6,0.1l0.6,0.1h0.7l0.6-0.1l1.8-0.3l0.6-0.1
		l0.6-0.2l0.6-0.2l1.2-0.5l1.1-0.6l1-0.8l0.5-0.3l0.5-0.4l1-0.9l0.8-1l0.4-0.5l0.4-0.6l0.7-1l0.3-0.6l0.3-0.6l0.4-0.6l0.3-0.6
		l0.4-0.5l0.3-0.6l0.3-0.6l0.3-0.6l0.3-0.6l0.5-0.4h0.6l0.6,0.4l0.3,0.6l-0.1,0.6l-0.3,0.6l-0.4,0.8l-0.4,0.8l-0.3,0.8l-0.4,0.8
		l-0.4,0.7L487,59l-0.2,0.4l-0.4,0.6l-0.7,1l-0.4,0.5l-0.4,0.4l-0.4,0.5l-0.5,0.6l-0.2,0.3l-0.5,0.6l-0.4,0.5l-1,0.8l-0.7,0.6
		l-0.6,0.6l-1.1,0.7l-1.8,0.8l-0.6,0.2l-0.6,0.2l-0.9,0.1l-0.8,0.2l-1.5,0.1l-0.9,0.1l-0.8,0.1h-0.6l-2.5-0.3l-0.6-0.1l-0.6-0.2
		l-0.6-0.3l-0.6-0.3l-1.1-0.6l-0.6-0.3l-0.5-0.4l-0.5-0.5l-0.3-0.4l-0.5-0.6l-0.4-0.5l-0.3-0.6l-0.3-0.5l-0.3-0.6l-0.2-0.6l-0.2-0.6
		l-0.1-0.6l-0.1-0.6l-0.1-0.6l-0.2-1.9v-1.3l0.1-0.6v-0.6l0.4-1.9l0.2-0.6l0.1-0.6l0.2-0.6l0.1-0.6l0.2-0.6l0.3-0.8l0.3-0.8l0.4-0.6
		l0.4-0.8l0.5-0.7l0.3-0.6l0.4-0.5l0.4-0.5l1-1.1l1-1l0.6-0.5l0.6-0.5l0.7-0.5l0.6-0.5l0.7-0.4l0.7-0.4l0.6-0.3l0.9-0.4l1.5-0.5
		l1.3-0.3l0.9-0.1h1.5l0.9,0.1l1.1,0.2l0.9,0.2l0.6,0.2l0.6,0.3l0.6,0.3l0.4,0.3l1,0.8l0.4,0.5l0.4,0.7l0.3,0.8l0.2,0.6l0.1,0.6
		l0.1,0.6v0.8l-0.1,0.9l-0.1,0.7l-0.2,0.8l-0.3,0.8l-0.3,0.7l-0.2,0.3l-0.3,0.6L483.3,51.2z M474.8,42.8l-1,0.4l-0.8,0.4l-0.6,0.4
		l-1,0.8l-0.6,0.6l-0.6,0.6l-0.5,0.6l-0.5,0.8l-0.5,0.7l-0.3,0.6l-0.4,0.8l-0.3,0.8l-0.3,0.6l-0.2,0.6l-0.1,0.5l0.4,0.4l0.9,0.2
		l1.4,0.1l0.7,0.1h2l0.7-0.1l0.6-0.1l0.7-0.3l0.4-0.1l0.7-0.3l0.5-0.4l0.5-0.4l0.5-0.5l0.5-0.4l0.4-0.6l0.3-0.5l0.3-0.6l0.3-0.6
		l0.4-1.3l0.1-0.7l0.1-0.6l-0.1-0.7l-0.3-0.6l-0.4-0.5l-0.6-0.4l-0.6-0.3l-0.6-0.1l-0.6-0.1l-0.7,0.1L474.8,42.8z"/>
	<path class="st0" d="M520.9,54.6l-0.3,0.6l-0.3,0.6l-0.3,0.6l-0.3,0.6l-0.3,0.6l-0.4,0.6l-0.3,0.5l-1.7,2l-0.5,0.5l-0.5,0.4
		l-0.5,0.4l-0.6,0.4l-0.5,0.3l-0.6,0.3l-0.6,0.3l-0.6,0.2l-0.5,0.1l-0.6,0.1l-0.8,0.1l-0.7,0.1l-0.5,0.1h-0.7l-0.6-0.1h-0.6
		l-0.4,0.2l-0.3,0.4l-0.4,0.5l-0.5,0.5l-0.6,0.6l-0.7,0.6L504,67l-0.8,0.4l-0.7,0.4l-0.6,0.3l-0.9,0.2l-1.1,0.2l-1.2,0.1l-0.9,0.1
		h-0.7l-0.7-0.1l-0.6-0.2l-0.5-0.2l-0.6-0.3l-0.6-0.3l-1-0.8l-0.5-0.4l-0.5-0.5l-1-1.7l-0.2-0.6l-0.4-1.9l-0.1-0.7v-1.3l0.1-0.7
		l0.4-0.8l0.8-0.7l1.1-0.3l0.8,0.1l0.4,0.4l0.1,0.6v0.6l-0.1,0.6l0.1,0.6l0.3,1.3l0.3,0.6l0.4,0.6l0.3,0.5l0.4,0.5l0.5,0.3l0.6,0.3
		l0.6,0.2l0.6,0.1h0.7l0.6-0.1l0.6-0.2l0.5-0.3l0.6-0.4l0.5-0.4l0.4-0.7v-0.7l-0.4-0.5l-0.4-0.6l-0.3-0.6l-0.1-0.7l0.1-0.6l0.4-0.6
		l0.4-0.4l1-0.7l0.3-0.4v-0.5l-0.1-0.6l-0.2-0.6l-0.2-0.6l-0.2-0.6l-0.1-0.6l-0.2-0.6l-0.2-0.6l-0.2-0.6l-0.2-0.6l-0.3-0.6l-0.2-0.6
		l-0.2-0.6l-0.2-0.6l-0.2-0.6l-0.2-0.6l-0.2-0.6l-0.2-0.6l-0.2-0.7l-0.3-0.8l-0.2-0.8l-0.2-0.6l-0.1-0.6l-0.1-0.6l-0.1-0.6l-0.1-0.4
		l-0.4,0.1l-1,1l-0.4,0.5l-0.7,1l-0.4,0.6l-0.3,0.5l-0.8,1.4l-0.4,0.8l-0.3,0.6l-0.3,0.5l-0.3,0.6l-0.3,0.5l-0.3,0.6l-0.4,0.9
		l-0.4,0.8l-0.3,0.6l-0.6,1.1l-0.3,0.6l-0.3,0.6l-0.4,0.8l-0.6,0.6l-0.6,0.1l-0.7-0.3l-0.3-0.6l0.1-0.6l0.1-0.6l0.6-1.1l0.4-0.6
		l0.2-0.4l0.3-0.6L489,50l0.2-0.6l0.8-1.7l0.4-0.6l0.3-0.6l0.4-0.8l0.5-0.8l0.4-0.6l0.3-0.6l0.3-0.6l0.4-0.6l0.3-0.4l0.4-0.6
		l0.3-0.5l1.7-2l0.8-0.9l0.4-0.5l0.5-0.5l0.5-0.4l1.1-0.7l0.6-0.3l0.7-0.2l0.6-0.1l0.6-0.1l0.6,0.1l0.6,0.1l0.6,0.4l0.4,0.5l0.2,0.6
		v0.6l-0.1,0.6l-0.3,0.6l-0.3,0.6L503,40l-0.1,0.6l0.1,0.8l0.2,0.8l0.1,0.7l0.3,0.9l0.4,1.1l0.4,1.1l0.8,2l0.3,0.6l0.3,0.8l0.4,0.8
		l0.3,0.6l0.2,0.6l0.2,0.6l0.6,1.7l0.2,0.6l0.1,0.9l0.1,1.1l0.1,0.9l0.1,0.7v1.8l0.1,0.6l0.2,0.4l0.6,0.1h0.6l1.3-0.1l1.3-0.4
		l0.6-0.2l1.1-0.7l0.5-0.4l1-0.9l0.9-0.9l0.3-0.5l1.4-2.2l0.3-0.6l0.3-0.6l0.2-0.6l0.3-0.6l0.6-0.4l0.8,0.2l0.6,0.7v0.7l-0.2,0.6
		L520.9,54.6z"/>
	<path class="st0" d="M535.9,52.8v0.8l-0.2,0.6l-0.6,1.1l-0.6,1.1l-0.4,0.6l-0.3,0.6l-0.4,0.6l-0.2,0.4l-0.3,0.6l-0.4,0.6l-0.3,0.5
		l-0.4,0.6l-0.4,0.5l-0.7,1.1l-1.3,1.5l-0.8,0.9l-0.5,0.5l-0.4,0.5l-0.5,0.4l-1.5,1.2l-0.5,0.4l-0.6,0.3l-0.6,0.2l-0.6,0.1l-1.3,0.3
		h-1.2l-0.8-0.1l-0.6-0.2l-0.6-0.2l-0.6-0.4l-0.5-0.4l-0.4-0.5l-0.3-0.6l-0.3-0.6l-0.1-0.6l-0.1-0.6l-0.1-0.6v-0.6l0.1-1.3l0.1-0.6
		l0.2-0.6l0.3-1.3l0.2-0.6l0.1-0.6l0.2-0.6l0.2-0.6l0.6-1.9l0.1-0.6l0.1-0.6l0.2-0.6l0.1-0.6l0.1-0.6l0.4-1.3l0.2-0.8l0.2-0.9
		l0.4-1.3l0.1-0.6l0.1-0.5l0.1-0.6l0.3-0.7l0.2-0.6l0.4-1.9l0.2-0.6l0.2-0.8l0.3-0.9l0.2-0.6l0.3-0.6l0.4-0.4l0.6-0.3l0.6-0.1
		l0.7,0.1l1.3,0.1l1.1,0.4l0.3,0.5v0.6l-0.1,0.6l-0.2,0.8l-0.2,0.9l-0.4,1.3l-0.1,0.6l-0.1,0.6l-0.2,0.7l-0.2,0.8l-0.7,2.1l-0.1,0.6
		l-0.3,0.9l-0.5,1.5l-0.1,0.6l-0.1,0.6l-0.1,0.6l-0.5,1.2l-0.1,0.6l-0.5,1.8l-0.4,1.3l-0.1,0.6l-0.2,0.9l-0.2,1.1l-0.1,1.2l0.1,1
		l0.6,0.8l0.8,0.2l0.6-0.1l0.6-0.3l0.5-0.4l0.6-0.4l2.3-2.3l0.4-0.5l0.3-0.5l0.4-0.6l0.7-1.1l0.4-0.5l0.3-0.4l0.4-0.6l0.4-0.6
		l0.3-0.6l0.6-1.2l0.8-1.7l0.4-0.6l0.6-0.4l0.9,0.1L535.9,52.8z M524.6,31.4l0.3-0.6l0.6-0.5l0.6-0.4l0.7-0.2l0.6-0.1h0.7l0.6,0.1
		l0.6,0.4l0.5,0.4l0.5,0.5l0.4,0.6l0.2,0.6l0.1,0.6v0.7l-0.2,0.6l-0.3,0.6l-0.4,0.6l-0.5,0.4l-0.6,0.4l-0.6,0.3l-0.7,0.1l-0.6-0.1
		l-0.7-0.1l-1.1-0.7l-0.4-0.5l-0.3-0.6l-0.1-0.6l-0.1-0.6l0.1-0.6l0.1-0.7L524.6,31.4z"/>
	<path class="st0" d="M537.2,88.3l-0.8-0.2L536,88l-0.6-0.3l-0.6-0.3l-0.5-0.4l-0.4-0.4l-0.3-0.6l-0.5-0.8l-0.3-0.8l-0.1-0.6
		l-0.1-0.6l0.1-0.7l0.1-0.9l0.2-0.8l0.2-0.6l0.3-0.8l0.4-0.8l0.4-0.6l0.5-0.6l0.4-0.5l0.8-0.8l1.5-1.3l0.5-0.3l1.5-1l0.6-0.3
		l0.8-0.4l0.8-0.3l0.7-0.4l0.3-0.1l0.8-0.4l0.8-0.4l0.7-0.3l0.6-0.4l0.6-0.2l0.5-0.3l0.4-0.4l0.2-0.6l0.4-1.2l0.6-1.8l0.1-0.6
		l0.2-0.6l0.1-0.6l0.1-0.6l0.2-0.6l0.1-0.6l0.2-0.6l0.4-1.1l0.2-0.6h-0.1l-0.3,0.6l-0.7,1.1l-0.3,0.5l-0.4,0.5l-0.4,0.5l-0.5,0.6
		l-0.3,0.4l-0.5,0.6l-0.4,0.5l-0.9,0.9l-0.5,0.4l-0.6,0.4l-1.1,0.6l-0.6,0.4l-0.6,0.3l-0.6,0.1l-0.6,0.1l-1.3,0.1h-1.3l-0.8-0.1
		l-0.8-0.1l-0.7-0.3l-0.8-0.4l-0.7-0.5l-0.5-0.5l-0.4-0.5l-0.4-0.6l-0.4-0.8l-0.3-0.8l-0.1-0.6l-0.1-0.6L532,62l-0.1-0.8l-0.1-0.9
		v-0.7l0.1-1.3l0.1-0.9l0.2-1.1l0.3-0.9l0.2-0.6l0.1-0.6l0.2-0.6l0.2-0.6l0.3-0.6l0.3-0.8l0.6-1.3l0.3-0.7l0.4-0.6l0.3-0.5l0.9-1.3
		l0.5-0.8l0.4-0.5l0.7-1l0.8-1l0.5-0.4l0.6-0.4l0.9-0.8l2-1.5l1.5-0.8l0.7-0.3l0.8-0.4l1.5-0.5l0.7-0.1l0.4-0.1l0.7-0.2l0.6-0.1
		l1.3-0.1h0.7l1.8,0.1h0.6l0.6,0.1l0.6,0.1l0.6,0.1l0.7,0.3l0.6,0.2l0.5,0.1l0.6,0.3l0.6,0.2l0.6,0.3l0.8,0.5l0.6,0.4l0.6,0.4
		l0.6,0.4l0.4,0.5l0.2,0.7l-0.2,0.8l-0.4,0.6l-0.4,0.4l-0.5,0.4l-0.6,0.3l-0.6-0.1l-0.6-0.4l-1-0.6l-1.1-0.7l-0.6-0.3l-0.6-0.2
		l-0.6-0.1l-0.6-0.2l-1.3-0.3h-2l-0.6,0.1l-0.7,0.1l-0.8,0.2l-0.8,0.3l-0.8,0.2l-0.8,0.4l-1,0.6l-0.8,0.6l-0.5,0.4l-0.5,0.4
		l-0.4,0.5l-0.6,0.6l-0.6,0.7l-0.5,0.6l-0.5,0.7l-0.8,1.2l-0.6,0.8l-0.4,0.8l-0.6,1.3l-0.2,0.6L539,54l-0.4,1.3l-0.1,0.6l-0.2,0.6
		l-0.1,0.7l-0.1,0.6l-0.1,0.6l-0.1,0.7l-0.1,0.6v0.7l0.1,0.6l0.2,0.6l0.2,0.7l0.1,0.4l0.4,0.7l0.4,0.4l0.6,0.3l0.6,0.1h0.6l0.6-0.1
		l0.6-0.1l0.6-0.3l1.5-1l0.5-0.4l0.4-0.4l0.4-0.5l0.4-0.4l0.4-0.5l0.3-0.5l0.7-1.1l0.5-0.7l0.6-0.7l0.3-0.6l0.3-0.5l0.2-0.6l0.6-1.1
		l0.6-1.1l0.3-0.6l0.3-0.6l1.7-5l0.1-0.6l0.3-0.7l0.6-0.6l0.7-0.4h0.7l0.9,0.1l0.8,0.3l0.6,0.3l0.5,0.6l0.2,0.8l-0.1,0.6l-0.1,0.6
		l-0.4,1.3l-0.1,0.6l-0.2,0.6l-0.1,0.6l-0.4,1.3l-0.1,0.6l-0.1,0.6l-0.2,0.6l-0.4,1.9l-0.4,1.3l-0.1,0.6l-0.1,0.7l-0.1,0.4l-0.1,0.7
		l-0.1,0.6l-0.2,0.6l-0.3,0.9l-0.2,0.8l-0.2,0.6l-0.1,0.6l-0.6,1.9l-0.1,0.8l0.1,0.4l0.6-0.1l1-0.5l0.6-0.3l0.6-0.3l0.5-0.4l0.6-0.4
		l0.4-0.3l0.5-0.5l0.4-0.4l0.5-0.4l0.6-0.6l0.5-0.4l0.4-0.5l0.3-0.5l0.4-0.6l0.4-0.5l0.4-0.6l0.6-0.8l0.5-0.6l0.7-1.1l0.3-0.5
		l0.4-0.6l0.3-0.6l0.2-0.6l0.8-1.7l0.3-0.6l0.3-0.6l0.4-0.5l0.4-0.3h0.6l0.6,0.4l0.3,0.5v0.6l-0.3,0.6l-0.3,0.8l-0.4,0.8l-0.3,0.6
		l-0.3,0.6l-0.3,0.6l-0.4,0.8l-0.4,0.8l-0.4,0.7l-0.5,0.7l-0.4,0.7l-0.4,0.6l-0.4,0.5l-0.4,0.6l-0.2,0.4l-1,1.3l-0.6,0.7l-0.8,0.8
		l-0.6,0.5l-0.9,0.8l-0.4,0.5l-0.5,0.4l-0.4,0.4l-0.6,0.3l-0.5,0.4l-0.6,0.3l-0.5,0.4l-0.6,0.3l-1.1,0.6l-1,0.6l-0.6,0.3l-0.6,0.3
		l-0.3,0.6l-0.4,0.8l-0.1,0.6l-0.2,0.6l-0.1,0.6l-0.2,0.7l-0.1,0.4l-0.2,0.7l-0.2,0.6l-0.3,0.9l-0.3,1l-0.5,1l-0.3,0.9l-0.2,0.6
		l-0.2,0.6l-0.3,0.6l-0.4,0.6l-0.5,0.8l-0.4,0.6l-0.4,0.5l-0.4,0.4l-0.4,0.4l-0.4,0.4l-0.6,0.4l-0.6,0.4l-0.8,0.3l-1.1,0.3l-0.9,0.1
		l-0.6,0.1h-0.6l-0.7-0.1L537.2,88.3z M537.8,82.3l0.1,0.8l0.3,0.6l0.7,0.4l0.8,0.2l0.7-0.1l0.6-0.2l0.6-0.3l0.7-0.6l0.6-0.6
		l0.4-0.6l0.3-0.5l0.3-0.6l0.7-1.5l0.2-0.7l1-2.9l0.1-0.9l-0.4-0.3l-0.6,0.3l-0.6,0.4l-1.7,1l-0.5,0.4l-0.6,0.5l-0.5,0.4l-1.3,1.3
		l-0.4,0.5l-0.4,0.6l-0.4,0.5l-0.3,0.6l-0.3,0.6L537.8,82.3z"/>
	<path class="st0" d="M581.6,43.2l-0.6,0.3l-0.5,0.3l-0.5,0.4l-0.6,0.4l-0.5,0.4l-1.1,0.8l-0.5,0.4l-0.5,0.4l-0.5,0.5l-0.8,1
		l-0.5,0.5l-0.8,1l-0.7,1.1l-0.4,0.6l-0.8,1.7l-0.8,2.3l-0.2,0.9l-0.3,1.1l-0.3,0.9l-0.4,1.9l-0.3,0.9l-0.3,1.1l-0.2,0.9l-0.2,0.6
		l-0.2,0.9L569,65l-0.2,0.7l-0.1,0.6l-0.1,0.6l-0.2,0.6l-0.4,0.4l-0.6,0.2l-0.6,0.1l-0.9,0.1l-1-0.1l-0.9-0.1l-0.6-0.3l-0.4-0.6
		l-0.1-0.8l0.1-0.7l0.2-0.9l0.2-0.8l0.1-0.6l0.2-0.6l0.1-0.6l0.2-0.6l0.2-0.6l0.1-0.6l0.1-0.6l0.1-0.6l0.2-0.6l0.2-0.6l0.3-1.3
		l0.1-0.6l0.1-0.6l0.2-0.6L566,54l0.2-0.6l0.2-0.8l0.3-0.9l0.4-1.3l0.1-0.6l0.1-0.6l0.2-0.6l0.1-0.6l0.2-0.6l0.1-0.6l0.2-0.6
		l0.2-0.9l0.2-0.8l0.1-0.6l0.4-1.3l0.1-0.6l0.2-0.6l0.3-1.3l0.5-0.7l0.9-0.5l1.1-0.1l1.1,0.1l1,0.3l0.7,0.7l0.1,0.8l-0.1,0.7
		l-0.1,0.5l-0.2,0.6l-0.1,0.6l-0.2,0.6l-0.1,0.6l-0.2,0.6l-0.1,0.6l-0.1,0.4l0.1,0.1l0.3-0.4l0.4-0.5l0.4-0.5l0.8-1l0.5-0.4l0.9-0.8
		l0.5-0.4l0.9-0.9l1.4-1.1l0.6-0.4l0.6-0.3l0.6-0.4l0.6-0.2l0.6-0.2l0.9-0.2l0.8-0.1h1.6l1.1,0.1l0.8,0.1l0.6,0.3l0.6,0.4l0.5,0.5
		l0.4,0.5l0.3,0.6l0.3,0.6l0.2,0.6l0.2,0.8l0.1,0.8v1.3l-0.1,0.6v0.6l-0.1,0.6l-0.1,0.6l-0.1,0.7l-0.1,0.4l-0.2,0.7l-0.2,0.9l-0.3,1
		l-0.3,0.9l-0.2,0.6l-0.2,0.9l-0.3,1.2l-0.3,1.1l-0.3,1l-0.1,0.6l-0.1,0.5l-0.1,0.6l-0.2,0.6l-0.1,0.6l-0.4,1.9l-0.1,0.6v1.3
		l0.3,0.6l0.5,0.4l0.6,0.1l0.6-0.2l0.6-0.3l0.6-0.4l0.5-0.3l0.6-0.4l0.9-0.9l0.4-0.5l0.4-0.6l0.3-0.5l0.5-0.6l0.4-0.5L595,59l0.6-1
		l0.4-0.6l0.2-0.4l0.4-0.6l0.4-0.6l0.6-1.1l0.3-0.6l0.2-0.6l0.2-0.6l0.3-0.6l0.6-0.4l0.9,0.2l0.6,0.7v0.7l-0.2,0.6l-0.3,0.6
		l-0.3,0.6l-0.3,0.6l-0.4,0.6l-0.3,0.6l-0.4,0.6l-0.2,0.4l-0.7,1.3l-0.1,0.4l-0.3,0.6l-0.7,1.1l-0.4,0.6l-0.3,0.3l-0.4,0.6l-0.5,0.6
		l-0.4,0.5l-0.8,0.8l-0.4,0.5l-1,0.8l-0.4,0.4l-0.6,0.4l-0.6,0.4l-1.1,0.6l-0.6,0.2l-0.6,0.2l-0.6,0.1l-0.6,0.1l-0.7,0.1H586
		l-0.6-0.1l-0.6-0.1l-0.6-0.2l-0.6-0.2l-0.6-0.4l-0.4-0.3l-0.4-0.5l-0.3-0.6l-0.2-0.6l-0.1-0.6l-0.1-0.6v-1.5l0.1-0.9l0.1-0.7
		l0.2-0.9l0.6-2.3l0.2-1.2l0.3-1.2l0.3-1.1l0.3-0.9l0.2-0.6l0.3-0.9l0.3-1.1l0.2-1.1l0.3-0.9l0.3-1.3l0.1-0.6l0.3-1.3l0.1-0.6
		l-0.1-0.7l-0.4-0.7l-0.6-0.6l-0.6-0.2l-0.6-0.1l-0.6,0.1L581.6,43.2z"/>
</g>
</svg>
